<svg width="80" height="80" viewBox="0 0 80 80" fill="none" xmlns="http://www.w3.org/2000/svg">
<path d="M53.236 16.946C52.282 17.4264 51.5616 17.89 51.3108 18.8428C51.2124 19.216 51.2116 19.2236 51.0976 19.1444C50.5456 18.7624 49.9896 18.3208 49.2856 18.4272C48.934 18.4804 48.3384 18.7304 48.3532 19.0812C48.3284 19.3204 48.5684 19.3828 48.7372 19.242C50.0528 18.1452 51.4232 20.846 51.7296 19.6684C51.8124 19.3512 51.7208 19.3352 51.9436 18.768C52.2932 17.8792 53.4408 17.6476 53.698 17.23C53.854 16.9768 53.5556 16.7848 53.2356 16.946H53.236Z" fill="black"/>
<path d="M8.95049 56.7236C8.63289 56.7076 8.02609 56.918 7.47849 57.4716C7.00729 57.9484 7.24209 58.2864 6.99209 58.1616C6.50089 57.9164 5.93409 57.5976 5.34249 57.6084C4.25849 57.6284 4.51609 58.4612 4.94769 58.2324C5.44569 57.968 6.33649 58.464 6.82129 58.7288C7.95369 59.3476 7.30449 58.1896 8.16849 57.6392C8.52849 57.41 8.84729 57.2552 9.06409 57.0852C9.21489 56.9668 9.23129 56.7376 8.95049 56.7236Z" fill="black"/>
<path d="M16.8509 54.1983C16.7853 54.2983 16.7817 54.2939 16.6685 54.2391C15.7417 53.7907 15.6313 53.6851 14.8041 53.6043C14.6185 53.6467 14.3197 53.6643 14.3449 53.9191C14.3613 54.0851 14.5725 54.1427 14.7389 54.1475C16.1577 54.1855 16.7525 55.5227 17.2881 54.5883C17.7261 53.8243 19.4265 53.0139 19.3749 52.8771C19.1801 52.3591 17.4177 53.3371 16.8509 54.1983Z" fill="black"/>
<path d="M61.4016 18.9664C60.4112 19.3464 60.2804 19.5656 59.8904 20.1996C59.4312 19.9072 58.9288 19.5636 58.3148 19.6416C57.6008 19.732 57.9116 20.494 58.3164 20.2232C58.6664 19.9892 59.6712 20.7788 59.8012 20.8556C60.0324 20.9924 60.252 20.9148 60.3512 20.6632C60.8216 19.468 61.5172 19.7248 61.8308 19.2936C61.984 19.0828 61.7776 18.8228 61.4016 18.9672V18.9664Z" fill="black"/>
<path d="M62.5576 12.958C61.6336 13.6536 61.7528 14.0316 61.618 13.936C61.142 13.5988 60.8464 13.3528 60.4132 13.3144C60.0116 13.306 59.826 13.5516 59.9276 13.7616C60.068 14.0524 60.1732 13.734 60.5876 13.9272C61.2916 14.2556 61.9512 15.2668 62.1764 14.3244C62.3752 13.492 63.5768 13.1364 63.5852 13.1324C63.9664 12.9364 63.4984 12.2492 62.558 12.9576L62.5576 12.958Z" fill="black"/>
<path d="M9.96524 50.4004C9.52124 50.1504 9.10284 49.8748 8.53644 49.9512C8.21644 49.9944 8.15564 50.3828 8.54724 50.406C9.70204 50.4748 10.0988 51.7488 10.5392 50.5516C10.7008 50.1124 11.2864 49.4308 11.4216 49.2828C12.2416 48.3832 12.2672 48.5396 12.4232 48.388C12.6264 48.1904 11.2884 47.984 9.96564 50.4L9.96524 50.4004Z" fill="black"/>
<path d="M44.8541 65.5397C44.8541 63.9361 44.9341 62.6449 46.0581 61.4693C47.5237 59.9357 48.5833 59.6249 49.9545 59.6557C51.8005 59.6973 53.2981 60.2797 54.4665 61.7093C55.5429 63.0265 55.3281 63.2273 55.5305 62.8249C56.5917 60.7153 58.4873 59.3949 60.2501 59.0401C63.0341 58.4801 66.7609 61.1305 66.5885 63.8545C66.5169 64.9869 65.3721 67.2541 65.7369 67.2661C67.6021 67.3273 68.9853 67.6141 71.1497 69.7697C71.5973 70.2153 72.2457 71.1437 72.3369 71.7549C72.3941 72.1389 72.5909 72.1049 74.0505 72.4737C75.7861 72.9125 76.4953 73.0245 77.1805 73.7033C77.7485 74.2661 77.4981 75.0529 76.8897 75.4185C75.5393 76.2309 74.2153 76.2765 72.7941 76.2549C68.0229 76.1817 66.2033 76.4413 54.1481 76.0473C48.1805 75.8521 53.7481 75.9789 43.9841 75.6741C30.9069 75.2657 31.7817 75.6905 30.0353 75.4373C28.7881 75.2565 26.9801 74.9065 27.4233 73.7269C27.6965 73.0005 28.9729 72.8089 29.8585 72.5565C31.3413 72.1341 31.6821 71.8881 33.8665 71.8565C34.8289 71.8425 35.9109 71.9821 36.0349 71.0249C36.1713 69.9745 36.0253 69.6557 36.3941 68.7081C36.6821 67.9681 37.5313 66.9369 38.7885 66.3329C41.0169 65.2621 42.8441 66.6609 44.4253 67.6157C44.7217 67.7949 44.7701 67.9017 44.8053 67.7813C44.8173 67.7405 44.8793 65.5385 44.8537 65.5385L44.8541 65.5397ZM45.3273 67.6093C45.3229 67.8117 45.2797 68.0057 45.2357 68.2001C45.0933 68.8257 44.4233 68.2521 44.0869 68.0485C41.9077 66.7309 41.5285 66.4525 40.1313 66.5273C38.7757 66.6001 37.2121 67.9085 36.8289 69.1757C36.3841 70.6453 37.2389 72.1901 34.6053 72.3009C33.4349 72.3501 33.3105 72.2325 32.2649 72.4025C30.9637 72.6141 30.8133 72.8361 28.6093 73.4013C27.9669 73.5661 27.2621 74.1745 28.6625 74.5961C30.9961 75.2985 32.9169 74.7873 36.3005 74.9601C36.3781 74.9641 36.3185 75.0993 48.0573 75.2265C48.0665 75.2265 61.7837 76.0297 71.8469 75.7305C72.4325 75.7129 75.6297 76.0501 76.8797 74.8617C77.0653 74.6849 77.1305 74.2769 76.8913 74.0361C76.1001 73.2401 75.1729 73.3033 72.4549 72.5589C71.8185 72.3845 71.9345 71.8669 71.6625 71.3469C71.1241 70.3177 70.5093 69.8617 70.0037 69.4041C67.0609 66.7417 64.7761 68.5053 65.0577 67.2229C65.6593 64.4845 67.1753 63.4457 64.5837 60.9037C63.9745 60.3065 63.4949 60.1289 62.3917 59.6925C61.4421 59.3169 60.2065 59.3445 58.8433 60.1109C55.7793 61.8333 56.1181 63.8069 55.3733 63.7357C54.7893 63.6801 54.0169 60.4357 50.4989 60.2009C50.1897 60.1801 49.3109 60.1673 48.9025 60.2433C47.8537 60.4385 46.8161 61.3653 46.2125 62.1113C45.2433 63.3081 45.3941 64.4057 45.3269 67.6097L45.3273 67.6093Z" fill="black"/>
<path d="M54.4194 29.1378C56.0998 29.1198 57.2706 29.2086 58.8234 30.9638C59.6574 31.9066 59.6058 32.1758 59.709 31.9926C61.8522 28.1938 63.0366 27.629 65.949 27.4654C69.0406 27.2918 70.9338 30.3414 70.9242 32.1442C70.9022 36.4114 69.249 33.9866 73.0238 35.4058C74.0294 35.7838 74.855 36.4638 74.791 37.537C74.7526 38.1802 74.4438 38.6122 74.0154 39.3422C73.7994 39.7102 73.625 39.5082 75.8214 40.2546C76.103 40.3502 77.0942 40.6978 77.4566 40.8926C78.1238 41.251 78.1038 41.6758 77.785 41.875C76.6754 42.5674 74.499 42.2122 72.649 42.299C71.0602 42.3738 53.151 42.2158 50.8982 42.0274C50.221 41.9706 48.937 42.0306 48.803 42.029C44.0526 41.9706 40.5354 42.4446 39.5546 41.5042C39.3314 41.2902 39.3206 41.017 39.5422 40.7962C39.6722 40.6662 39.8322 40.5838 39.9906 40.5006C41.367 39.7758 42.7182 39.4838 43.4338 39.3042C43.9646 39.171 44.0962 39.2574 44.0378 39.0886C43.773 38.3214 43.9414 37.3066 44.3902 36.5874C45.1118 35.4314 47.2854 34.9862 49.0022 35.8658C49.7062 36.2266 49.5462 36.2082 49.2946 35.0726C48.6918 32.3538 50.8686 29.1758 54.4198 29.1374L54.4194 29.1378ZM75.8662 41.831C76.5034 41.8326 77.6666 41.611 77.4158 41.4286C77.3266 41.3638 77.2366 41.2946 77.1358 41.2546C74.0982 40.0426 73.1418 40.2274 73.3734 39.5082C73.605 38.7894 75.5426 36.9882 72.931 35.9174C72.0962 35.575 70.9114 35.3606 70.3566 35.375C70.0618 35.3826 69.8602 35.1834 69.9534 34.8626C70.7406 32.1574 70.5622 30.6998 68.6138 28.8358C68.1346 28.3778 67.439 28.1802 66.7758 28.0526C66.1126 27.925 66.0662 27.9802 64.9478 28.0886C60.5742 28.5118 60.1714 34.3826 59.257 32.5182C58.907 31.805 58.199 30.9378 57.0534 30.1706C56.3918 29.7274 55.6878 29.7358 55.0114 29.6842C53.337 29.5566 52.1634 29.8362 50.6958 31.477C49.9218 32.3426 49.5318 33.7838 49.8618 35.1662C49.9766 35.6478 49.9822 36.1502 50.1426 36.6226C50.1774 36.725 50.1326 36.8142 50.0466 36.8774C49.8658 37.0106 49.7066 36.8382 49.6226 36.7806C47.635 35.419 44.6514 35.6518 44.4558 37.967C44.4238 38.3434 44.3966 38.727 44.5134 39.101C44.7922 39.995 42.4738 39.4802 39.8938 41.047C39.8062 41.1002 39.8054 41.157 39.8938 41.1986C41.5182 41.9646 45.3114 41.3106 53.1438 41.6158C59.3978 41.8594 75.8438 41.8306 75.8662 41.8306V41.831Z" fill="black"/>
<path d="M5.44285 75.4329C22.376 75.4329 21.5136 75.9941 22.4992 75.4081C23.2304 74.9729 21.3512 74.3817 20.4024 74.1441C18.1048 73.5693 17.744 73.9033 17.4656 72.4737C17.2184 71.2049 17.27 70.5849 16.4216 70.1233C16.0252 69.9077 15.2084 69.6933 14.622 69.7261C13.7124 69.7769 13.2852 70.0509 12.206 70.7185C11.7112 71.0245 11.4184 71.3617 11.1212 70.9085C10.6608 70.2065 10.4704 66.9073 6.81325 67.3969C5.09605 67.6269 4.23125 69.6909 3.68564 68.9781C3.56244 68.8173 3.43324 68.2473 2.94244 67.9625C2.44204 67.6721 2.22004 67.7301 2.05604 67.5393C1.68284 67.1061 3.24884 67.0829 3.85804 68.1241C4.04485 68.4433 3.99724 68.5085 4.20645 68.3373C5.44685 67.3225 5.75285 66.8357 7.54485 66.8169C8.56805 66.8061 9.55765 67.1753 10.2832 68.0057C10.9988 68.8245 11.0172 69.1321 11.3044 69.9661C11.5036 70.5433 11.4824 70.5533 11.6228 70.4677C12.6668 69.8297 13.2564 69.4113 14.018 69.2789C14.8628 69.1321 15.7424 69.2689 16.4516 69.5629C17.394 69.9537 17.6416 70.5533 17.7996 71.3741C18.3384 74.1709 17.8524 72.6209 21.642 73.9741C22.456 74.2649 22.8236 74.4345 23.1008 74.9157C23.2844 75.2337 23.1748 75.6813 22.4644 75.9637C21.468 76.3597 20.0616 76.1333 19.366 76.1029C14.7948 75.9017 3.19444 76.1285 2.30044 75.8845C2.17564 75.8505 2.11804 75.6105 2.31444 75.5621C2.79044 75.4445 5.44285 75.4245 5.44285 75.4329Z" fill="black"/>
<path d="M31.5367 46.3572C31.9107 42.54 31.6755 42.6404 31.8739 42.4164C37.6083 35.9496 42.7351 30.3444 43.4783 21.678C43.9291 16.426 41.5371 11.7576 38.8535 9.9688C37.7815 9.2528 37.2947 8.8284 36.0635 8.342C35.7539 8.2196 35.6603 8.1204 35.4739 7.9236C34.1131 6.4824 31.5811 5.0672 29.2307 4.9528C28.9031 4.9372 28.8907 4.7436 27.7683 4.2784C26.7343 3.8496 25.1967 3.5476 23.9831 3.9844C23.8059 4.0484 23.7475 4.0252 23.5911 3.964C22.3723 3.4852 20.6215 3.5812 19.4615 4.6736C19.3599 4.7696 19.3243 4.7988 19.2607 4.79C18.7603 4.714 18.1999 4.7232 17.6403 4.8168C14.0627 5.4148 12.7439 7.1864 12.1099 8.0376C11.9199 8.2928 11.7827 8.4768 11.6767 8.5056C11.1015 8.662 10.3419 9.216 9.86628 9.6436C7.24628 11.992 6.54188 15.234 6.20828 15.5744C4.44588 17.378 3.25267 20.0324 3.01707 22.6752C2.88827 24.128 2.97587 24.0936 2.97267 24.33C2.92907 27.8892 5.47868 32.1892 7.67508 34.7904C12.3447 40.3196 20.7731 43.8924 21.3599 45.0384C23.7935 49.7968 24.5011 50.4216 24.3399 50.6712C24.0803 51.0756 24.4603 51.7332 24.8471 52.0268C24.9759 52.1244 24.9723 52.1756 24.9527 52.4592C24.8935 53.3088 24.9435 54.6904 25.0207 55.6128C25.0587 56.0664 25.0559 56.082 24.9215 56.1752C24.5391 56.4404 24.3747 56.9704 24.6799 57.3736C24.7411 57.4544 24.7315 57.464 24.6367 57.5572C24.2247 57.9628 24.3247 58.1892 23.4543 59.014C23.1103 59.3396 22.8831 59.5552 22.9647 60.1156C22.9951 60.3236 23.2891 60.6472 23.7407 60.6872C24.2307 60.7308 24.5951 60.2932 24.8979 59.842C24.8623 62.0408 24.7823 62.8892 25.6191 63.2148C27.2899 63.8644 28.5651 63.4544 30.0499 63.0664C33.2715 62.224 35.8167 61.5612 36.3403 60.5652C36.4567 60.344 36.4707 60.1076 36.3819 59.8632C36.1799 59.3064 35.8107 58.5544 35.8267 58.4588C36.4627 58.2952 36.7115 57.534 36.4731 57.0664C35.6803 55.5116 34.5871 55.7604 34.6175 55.3588C34.6611 54.7896 34.2271 54.1904 34.0287 54.1128C33.4843 53.9 33.4731 53.9732 33.4087 53.8268C32.1463 50.9456 31.7511 50.6768 31.8527 50.5376C32.0991 50.2008 31.9587 49.6444 31.7803 49.3564C31.4099 48.7596 31.3043 48.8764 31.3103 48.7812C31.3359 48.4064 31.4619 47.1024 31.5347 46.3584L31.5367 46.3572ZM24.9471 57.8232C24.9387 58.7632 24.7859 59.764 23.8111 60.1932C23.2007 60.07 23.3627 59.6328 23.8535 59.2576C24.2507 58.9544 24.4955 58.5292 24.6747 58.2188C24.7763 58.042 24.8667 57.8852 24.9471 57.8232ZM29.1279 55.7912C25.0703 56.8736 25.3547 57.4148 25.1475 57.1284C25.0883 57.0464 25.0315 56.9696 25.0359 56.8636C25.0507 56.54 25.3819 56.3508 25.6571 56.2488C29.6027 54.7888 30.8091 54.668 32.9459 54.4352C33.2171 54.4056 33.7203 54.3512 33.9387 54.7652C34.0023 54.8856 34.1031 55.0436 34.1175 55.2068C32.9055 54.8252 30.3671 55.4604 29.1275 55.7908L29.1279 55.7912ZM25.4623 52.4576C25.4675 52.4556 25.4979 52.446 25.6447 52.4916C26.8215 52.8596 26.7023 52.21 26.8519 53.162C26.9827 53.9908 27.0483 54.3004 27.1303 54.672C27.3179 55.5176 27.2019 54.9408 25.5667 55.824C25.5159 55.852 25.5219 52.59 25.4623 52.4576ZM27.7147 52.4524C29.6843 52.036 29.6131 51.7948 29.6771 51.9804C30.0027 52.936 30.0539 53.1792 30.4707 54.1532C30.5627 54.368 30.5179 54.098 27.7787 54.9536C27.6683 54.9884 27.7447 55.1852 27.2935 52.6588C27.2898 52.5808 27.4302 52.512 27.7147 52.4524ZM32.8871 53.9076C32.7711 53.9188 32.2499 53.9096 31.2455 54.1068C31.1987 54.1152 31.1355 54.1132 31.0771 54.1212C30.9823 54.1344 30.9823 54.1348 30.9531 54.0512C30.7447 53.4552 30.1711 51.8084 30.1559 51.7704C30.1023 51.6408 30.8287 51.4192 31.4543 51.0392C31.4947 51.0576 31.5055 51.1144 32.3851 52.8524C32.7607 53.5948 32.8927 53.856 32.8871 53.9076ZM31.4515 50.272C31.4303 50.2608 31.4083 50.246 31.3823 50.2288C31.0691 50.0232 30.4167 49.5948 26.6755 50.8808C25.4359 51.3068 25.4851 51.774 25.3951 51.7652C25.1643 51.7428 24.5579 50.9504 24.8887 50.704C25.6999 50.1012 29.1427 49.088 30.8359 49.164C31.1467 49.1776 31.6243 49.744 31.4515 50.272ZM9.39548 17.264C9.48508 23.0576 12.9523 30.4252 15.8943 34.9736C16.6859 36.1972 19.9415 40.7408 21.4955 42.5312C21.5143 42.5532 21.5495 42.5936 21.5499 42.6048C21.5463 42.6212 21.4183 42.7168 21.4051 42.7268C21.3079 42.8008 21.2071 42.8768 21.1359 42.9904C20.6783 42.9872 12.9471 35.3956 10.1755 31.1044C8.28588 28.1788 7.21028 25.7472 6.68788 23.2204L6.68588 23.2128C5.00948 15.086 10.3191 9.4264 11.3123 9.2404C11.1291 9.9144 9.30908 11.6584 9.39548 17.264ZM30.0615 45.0404C30.0891 46.3444 30.1055 46.9396 30.0467 48.6212C30.0456 48.648 29.9607 48.6736 29.7919 48.6988C29.7815 48.7004 29.0887 48.8136 29.0783 48.8124C29.0555 48.7572 29.1239 46.8152 28.8723 44.5004C28.8679 44.4604 28.8127 43.9884 28.8451 43.9508C28.8531 43.9452 28.9063 43.948 28.9163 43.9484C29.3499 43.9648 29.6663 43.8112 30.0331 43.6704C30.0423 43.7136 30.0323 43.6664 30.0615 45.0404ZM27.6771 40.9148C27.8807 41.0488 27.9843 40.9496 28.0015 41.0648C28.3811 43.6268 28.3623 43.5972 28.2415 43.6892C27.8139 44.0144 27.1787 44.3368 26.6419 44.314C25.7155 44.2824 25.7655 44.428 25.4643 43.4508C24.8335 41.406 24.7131 41.494 24.8287 41.3736C25.7395 40.426 26.6979 40.2716 27.6771 40.9148ZM25.9167 44.7416C26.6199 44.7608 26.9323 44.9832 28.2295 44.2932C28.2687 44.2724 28.2995 44.2488 28.3243 44.2296C28.3703 44.194 28.3699 44.1172 28.4339 44.8956C28.5479 46.2716 28.6495 47.1312 28.7191 48.6756C28.7315 48.9572 28.7255 48.8828 27.7787 49.1124C27.3455 49.2168 27.3483 49.25 27.3163 49.1792C27.2871 49.1156 25.9203 44.7856 25.9163 44.7412L25.9167 44.7416ZM24.1135 45.2368C25.0391 45.198 25.3047 44.7592 25.3759 44.7544C25.3851 44.7608 26.6947 48.726 26.9283 49.3264C26.8623 49.3736 26.8695 49.37 26.6939 49.4228C25.5547 49.7664 25.5959 49.8396 25.5439 49.7264C24.2367 46.8728 23.5587 45.3656 23.4763 45.1328C23.5447 45.136 23.7255 45.2508 24.1135 45.2368ZM25.1227 44.3672C24.6071 44.6604 23.9359 44.9504 23.3143 44.5824C23.1519 44.4856 23.2003 44.4992 22.4111 42.8104C22.3663 42.716 22.4027 42.7916 22.7279 42.3332C23.0351 41.9012 23.8079 41.2648 24.2883 41.458C24.3503 41.4828 24.3867 41.6024 24.8467 43.0584C25.2335 44.2828 25.2707 44.2824 25.1223 44.3668L25.1227 44.3672ZM29.9399 43.21C29.5599 43.408 29.3967 43.4124 29.1503 43.4128C28.7699 43.4136 28.7851 43.4372 28.7523 43.054C28.6935 42.3728 28.6219 42.048 28.5015 41.438C28.3879 40.8692 28.3831 40.8648 28.4243 40.8456C29.0059 40.5748 29.2311 40.7144 29.5507 40.964C30.0703 41.37 29.9687 42.7112 30.0175 43.0356C30.0359 43.1548 30.0327 43.1612 29.9399 43.21ZM27.7871 40.376C26.7455 39.6396 25.4683 40.0156 24.7271 40.7788C24.2895 40.3892 19.9535 29.3096 17.9791 20.3624C17.2191 16.9212 16.7775 11.6208 18.0335 8.0084C18.3655 7.0516 18.8355 6.2548 19.6051 5.3444C20.1127 4.7428 21.1667 4.248 22.2939 4.278C24.6207 4.3304 26.0715 6.704 26.9603 8.4848C28.4423 11.4544 28.9491 15.9516 29.2015 19.076C29.9859 28.7832 27.9991 39.6668 27.7871 40.376ZM21.1795 43.9176C21.1855 43.8572 21.2391 43.4052 21.8799 42.9912C21.9411 42.9516 22.0031 42.91 22.0187 42.9152C22.0539 42.9256 22.7407 44.5812 22.7479 44.6108C22.7027 44.6236 22.4863 44.6212 22.4419 44.622C22.1359 44.6272 21.5303 44.4972 21.3067 44.2832C21.2075 44.188 21.1647 44.0652 21.1795 43.9176ZM23.0247 45.2676C23.7255 46.9752 24.9579 49.3488 25.2535 49.9292C25.1931 49.9796 25.1991 49.9724 24.7515 50.214C24.6503 50.2688 24.6587 50.2816 24.3171 49.6256C24.1075 49.2236 22.0711 45.4756 21.8687 45.066C23.0247 45.244 22.8783 44.91 23.0243 45.2672L23.0247 45.2676ZM31.1355 42.7296C30.9107 42.9572 30.4611 43.022 30.4523 42.9256C30.4435 42.8296 30.4799 42.804 30.3859 42.0696C30.3151 41.5188 30.3243 41.5508 30.3715 41.5616C30.9115 41.6916 30.8599 41.824 31.1007 42.0816C31.2591 42.2508 31.2567 42.6068 31.1355 42.7296ZM30.9127 48.6628C30.7823 48.6584 30.6827 48.6584 30.6067 48.6584C30.5047 48.6584 30.4243 48.6584 30.4119 48.6456C30.3871 48.6036 30.4487 47.6888 30.4583 47.5816C30.4931 47.1932 30.5231 46.8576 30.4915 43.568C30.4879 43.1972 30.7791 43.5708 31.3499 43.1036C31.3899 43.078 31.0595 48.3556 30.9127 48.6628ZM31.0483 41.416C31.0083 41.4028 30.8647 41.158 30.4859 41.0928C30.4691 41.09 30.4491 41.0864 30.4379 41.0832C30.4587 41.0208 30.5003 41.1068 31.9899 37.2884C34.0911 31.9024 35.1211 28.76 35.7755 23.3476C36.1055 20.6216 36.0559 16.316 35.1683 13.3048C34.0367 9.4644 32.5771 8.0168 30.7291 6.184C30.4227 5.88 30.2015 5.7472 30.0503 5.6072C34.4059 6.8472 37.3723 10.1596 38.6107 14.532C39.4059 17.3396 39.2443 19.6216 39.2371 19.6928C39.2371 19.6928 39.2351 19.7008 39.2351 19.7048C39.2351 27.7984 35.1795 34.4688 32.7563 38.4544C31.0163 41.316 31.1303 41.374 31.0479 41.4164L31.0483 41.416ZM35.5067 59.412C35.1791 59.3048 34.7711 59.1708 30.9575 60.0968C27.1387 61.0248 25.9535 61.5984 25.5643 61.7872C25.5207 61.8084 25.4811 61.8276 25.4567 61.8372C25.4567 61.808 25.4611 61.7712 25.4575 61.736C25.3691 58.3876 25.4363 59.862 25.4103 57.92C25.4055 57.6092 25.5615 57.4792 26.9967 57.0104C26.9635 57.1416 26.7427 57.4824 26.4919 58.0844C26.1539 58.8964 26.7523 59.5664 27.4707 59.4508C27.9531 59.3744 28.4775 58.7436 28.4575 58.0148C28.4319 57.0344 28.1299 56.7452 28.1775 56.6496C28.1979 56.6096 28.2615 56.6092 29.3739 56.296C30.4655 55.9884 30.3627 56.0224 30.3303 56.138C30.3107 56.2048 30.3083 56.2212 30.2963 56.2836C30.1851 56.8556 30.0163 57.72 30.3567 58.228C30.5859 58.5696 31.0307 58.5964 31.3707 58.5076C32.3527 58.2512 32.3331 56.6144 31.7895 55.7364C31.9459 55.6788 33.9767 55.4176 34.2007 55.9208C34.2703 56.0772 35.5319 59.0292 35.6759 59.456C35.6119 59.4464 35.5623 59.4304 35.5067 59.412ZM30.9383 58.0568C30.5295 57.958 30.6259 57.2092 30.6771 56.8068C30.7879 55.9376 30.7747 55.9436 30.8579 55.9188C31.1439 55.832 31.2831 55.8128 31.4155 55.9948C31.9223 56.696 31.8415 58.2752 30.9383 58.0568ZM27.9719 57.9732C27.9555 58.3344 27.9519 58.5712 27.5607 58.8812C27.2111 59.1576 26.7623 58.7284 26.8911 58.4144C27.3651 57.2572 27.4263 57.296 27.4991 56.8984C27.5071 56.8536 27.5347 56.812 27.5799 56.812C27.7919 56.812 27.9915 57.6032 27.9719 57.9732ZM34.7763 56.0752C35.4875 56.4104 35.9131 56.8504 36.0755 57.4188C36.0679 57.666 35.8827 57.9428 35.6687 58.0248C35.6239 58.0424 35.6251 58.0532 35.5615 57.8864C35.4791 57.67 34.7791 56.0844 34.7759 56.0756L34.7763 56.0752Z" fill="black"/>
</svg>
