<svg width="90" height="90" viewBox="0 0 90 90" fill="none" xmlns="http://www.w3.org/2000/svg">
<path d="M67.2211 39.5506C67.6094 39.7419 68.0348 39.8464 68.4676 39.8566C68.4919 39.8538 68.5154 39.8462 68.5367 39.8343C68.5581 39.8223 68.5768 39.8063 68.5919 39.787C68.6069 39.7677 68.618 39.7457 68.6245 39.7221C68.631 39.6985 68.6327 39.6738 68.6296 39.6496C68.5936 39.3661 68.2741 39.6091 67.3876 39.1996L67.4326 38.8666C67.4551 38.7721 67.3426 38.6191 67.2211 38.6641C67.0996 38.7091 67.0681 38.8531 67.0321 39.1141C66.9961 39.3751 66.9781 39.4291 67.2211 39.5506ZM20.2501 40.8286C20.7916 40.6814 21.3001 40.4324 21.7486 40.0951C21.9241 39.9601 21.8656 39.6451 21.8161 39.4651C21.802 39.4184 21.7711 39.3785 21.7295 39.3532C21.6878 39.3278 21.6383 39.3187 21.5903 39.3276C21.5423 39.3366 21.4994 39.3629 21.4696 39.4015C21.4399 39.4402 21.4254 39.4884 21.4291 39.5371C21.4376 39.6346 21.4557 39.7311 21.4831 39.8251C20.4166 40.6036 20.0026 40.4101 20.0656 40.7251C20.0796 40.761 20.1056 40.791 20.1393 40.8099C20.1729 40.8288 20.2121 40.8354 20.2501 40.8286ZM19.0261 39.9961C19.9261 39.9961 19.6201 39.4651 19.3771 39.5461L19.0306 39.6001C18.7336 38.1916 18.9721 37.8946 18.7156 37.8856C18.6769 37.8831 18.6388 37.8958 18.6093 37.921C18.5799 37.9463 18.5615 37.982 18.5581 38.0206C18.5263 38.577 18.5671 39.1352 18.6796 39.6811C18.7291 39.9241 18.8191 39.9961 19.0261 39.9961ZM45.1576 39.2221C45.4141 39.2221 46.7641 38.9296 46.9936 38.8936C47.3311 38.8351 47.7316 38.7316 47.7586 38.3671C47.7586 38.1421 47.5966 37.8811 47.4121 38.0161C47.3737 38.043 47.3453 38.082 47.3315 38.1268C47.3176 38.1716 47.3191 38.2197 47.3356 38.2636C47.4031 38.4391 47.2591 38.4256 45.0856 38.8981C45.0456 38.9104 45.0118 38.9374 44.9908 38.9735C44.9698 39.0097 44.9631 39.0525 44.9722 39.0933C44.9813 39.1341 45.0054 39.17 45.0397 39.1939C45.0741 39.2178 45.1161 39.2278 45.1576 39.2221ZM15.5611 28.2061C15.6601 28.3186 15.9031 28.2061 15.8311 28.0351C15.3811 26.9371 14.5531 25.7131 14.0311 24.5071C13.9501 24.3136 13.7881 23.9851 13.6306 23.9671C13.6108 23.9643 13.5907 23.9671 13.5725 23.975C13.5542 23.9829 13.5385 23.9958 13.5271 24.0121C13.4281 24.1471 13.5721 24.5206 13.6396 24.6781C13.8466 25.1236 14.8501 27.3916 15.5611 28.2061ZM30.1501 26.3071C30.1585 26.3422 30.176 26.3745 30.2008 26.4008C30.2256 26.4271 30.2568 26.4464 30.2914 26.4569C30.326 26.4674 30.3627 26.4686 30.3979 26.4605C30.4331 26.4523 30.4656 26.4351 30.4921 26.4106C30.8636 26.0723 31.2012 25.6985 31.5001 25.2946C32.8501 29.6146 32.8501 29.7676 33.0616 29.7676C33.0919 29.7667 33.1217 29.7594 33.1489 29.746C33.1761 29.7326 33.2001 29.7136 33.2194 29.6901C33.2386 29.6666 33.2525 29.6393 33.2602 29.61C33.2679 29.5806 33.2692 29.55 33.2641 29.5201C32.7601 27.9271 32.2291 26.3701 31.7701 24.7816C31.7598 24.7421 31.7381 24.7065 31.7076 24.6794C31.6772 24.6522 31.6394 24.6346 31.599 24.6289C31.5586 24.6231 31.5174 24.6294 31.4806 24.6469C31.4438 24.6645 31.413 24.6926 31.3921 24.7276C31.1337 25.134 30.8319 25.5113 30.4921 25.8526C30.2221 24.6196 29.5921 21.8026 29.5921 21.8026C29.5807 21.7572 29.5518 21.7182 29.5118 21.6942C29.4717 21.6701 29.4237 21.663 29.3783 21.6743C29.333 21.6857 29.294 21.7146 29.2699 21.7547C29.2459 21.7947 29.2387 21.8427 29.2501 21.8881C29.4031 22.5856 30.0556 25.9966 30.1501 26.3071ZM6.70957 49.7161C5.26057 49.0231 3.96907 48.3121 2.48407 47.5291C2.19607 47.3761 1.99807 47.9026 2.44807 48.0241C3.74459 48.8334 5.12708 49.4959 6.57007 49.9996C6.75007 50.0491 6.87607 49.8151 6.70957 49.7161ZM7.86157 39.3256C7.8925 39.353 7.93107 39.3702 7.97209 39.375C8.01311 39.3799 8.05462 39.372 8.09107 39.3526C8.38807 39.2086 8.00557 38.8531 8.14957 36.7156C11.7991 41.1211 11.5966 41.0086 11.7496 41.0086C11.7812 41.0106 11.8128 41.0034 11.8406 40.9881C11.8684 40.9727 11.8912 40.9497 11.9063 40.9218C11.9214 40.8939 11.9283 40.8622 11.926 40.8306C11.9238 40.7989 11.9125 40.7686 11.8936 40.7431C11.3221 40.0231 8.82007 36.9136 8.15407 36.0676C8.12902 36.0359 8.0954 36.012 8.0572 35.9987C8.019 35.9855 7.9778 35.9835 7.9385 35.993C7.8992 36.0025 7.86344 36.023 7.83545 36.0522C7.80745 36.0813 7.78841 36.1179 7.78057 36.1576C7.68908 36.9794 7.67402 37.808 7.73557 38.6326C6.38557 37.4221 5.09407 36.1396 3.73057 34.9606C3.68929 34.9275 3.63765 34.9099 3.58474 34.9111C3.53183 34.9123 3.48102 34.9321 3.44126 34.967C3.40149 35.002 3.37531 35.0498 3.36732 35.1021C3.35933 35.1544 3.37004 35.2079 3.39757 35.2531C3.92857 36.0766 6.92557 38.4751 7.86157 39.3256ZM43.3576 22.6351C43.3576 22.6792 43.3751 22.7216 43.4063 22.7528C43.4376 22.784 43.4799 22.8016 43.5241 22.8016C43.5682 22.8016 43.6106 22.784 43.6418 22.7528C43.673 22.7216 43.6906 22.6792 43.6906 22.6351C43.7677 20.9822 43.6984 19.3258 43.4836 17.6851C43.4789 17.6418 43.4618 17.6008 43.4344 17.567C43.4069 17.5332 43.3702 17.5082 43.3288 17.4948C43.2873 17.4815 43.2429 17.4805 43.2009 17.4919C43.1589 17.5033 43.1211 17.5266 43.0921 17.5591C42.8896 17.8201 43.3756 18.6436 43.3576 22.6351ZM55.5346 30.4516C58.9591 24.6736 58.7746 24.9616 58.7476 24.8581C58.6711 24.5971 58.4551 24.7231 56.7226 25.2451C57.1726 23.6476 57.7351 21.9421 58.1086 20.3266C58.1163 20.2743 58.1043 20.2211 58.0747 20.1773C58.0452 20.1335 58.0004 20.1023 57.9491 20.0899C57.8977 20.0775 57.8436 20.0848 57.7973 20.1102C57.7511 20.1357 57.716 20.1776 57.6991 20.2276C57.1906 22.0276 56.6866 23.7871 56.2006 25.5151C56.1927 25.5508 56.194 25.5879 56.2045 25.623C56.2149 25.658 56.234 25.6899 56.2601 25.7155C56.2862 25.7412 56.3184 25.7597 56.3536 25.7696C56.3888 25.7794 56.426 25.7801 56.4616 25.7716C56.4616 25.7716 57.6541 25.4026 58.1356 25.2451L55.2601 30.2986C55.2431 30.3347 55.2404 30.3759 55.2526 30.4139C55.2648 30.4519 55.291 30.4838 55.3259 30.5032C55.3607 30.5227 55.4017 30.5281 55.4404 30.5185C55.4791 30.509 55.5128 30.485 55.5346 30.4516ZM87.7096 43.6501C87.4756 43.5376 83.1466 46.2286 83.1016 46.2601C82.9441 46.3726 83.1016 46.6516 83.2635 46.5661C83.5246 46.4491 87.66 44.1496 87.7996 43.9021C87.8102 43.8796 87.8164 43.8553 87.8176 43.8305C87.8188 43.8057 87.8152 43.7808 87.8068 43.7574C87.7985 43.734 87.7856 43.7125 87.7689 43.6941C87.7522 43.6756 87.732 43.6607 87.7096 43.6501ZM76.2526 38.5066C76.2526 38.5066 80.5906 35.1991 81.4006 34.5691C81.576 34.4296 81.4006 34.1191 81.1936 34.1416C80.377 34.1611 79.5638 34.2529 78.7636 34.4161C79.9251 33.1769 80.9537 31.8195 81.8326 30.3661C81.9811 30.1231 81.6211 29.8711 81.4771 30.1186C80.4856 31.7358 79.3059 33.2298 77.9626 34.5691C77.8186 34.7086 77.9086 35.0506 78.1426 35.0191C78.9369 34.8168 79.7467 34.6814 80.5636 34.6141C80.5636 34.6141 77.1256 37.3816 76.0636 38.2591C76.0457 38.2878 76.037 38.3212 76.0386 38.355C76.0402 38.3888 76.0521 38.4212 76.0726 38.4481C76.0931 38.475 76.1213 38.4949 76.1535 38.5054C76.1856 38.5158 76.2202 38.5163 76.2526 38.5066ZM70.0471 25.4791C72.8101 20.7181 73.2915 20.0251 72.8281 19.9081C72.6301 19.8586 72.6391 19.8766 69.7366 25.3081C69.7229 25.3481 69.7238 25.3917 69.7391 25.4311C69.7544 25.4705 69.7831 25.5033 69.8201 25.5237C69.8572 25.5441 69.9002 25.5508 69.9417 25.5427C69.9832 25.5345 70.0205 25.512 70.0471 25.4791Z" fill="black"/>
<path d="M82.8 54.8506C80.964 49.0591 76.3245 44.6041 70.0605 42.6331C70.0563 42.5184 70.0443 42.4041 70.0245 42.2911C71.7345 41.5441 72.117 38.9746 71.739 36.7381C72.0675 36.2026 72.9405 33.4486 72.297 33.8266L71.1225 34.5196C70.956 34.0696 70.7625 33.6511 70.5555 33.2371C70.6005 32.5171 69.9435 31.2301 68.787 30.3886C67.725 29.6146 65.898 28.9216 63.234 30.0286C61.155 30.8926 58.8105 32.8006 58.455 35.5726C58.005 39.1726 59.1975 40.9186 56.97 44.2621C54.5087 43.1476 51.8851 42.4336 49.1985 42.1471C49.1986 41.9454 49.1851 41.7439 49.158 41.5441C50.3055 40.9636 50.5485 39.0736 50.598 38.4571C51.948 37.2871 52.1055 34.9561 51.048 34.9021C51.3198 33.2322 51.4238 31.5392 51.3585 29.8486C51.3 28.8001 50.85 28.5661 50.643 28.5211C50.4969 28.4935 50.346 28.5075 50.2076 28.5616C50.0691 28.6157 49.9486 28.7077 49.86 28.8271C49.5225 28.1386 48.8745 28.2241 48.51 28.7461C48.4742 28.5608 48.3811 28.3915 48.2438 28.262C48.1065 28.1326 47.932 28.0495 47.745 28.0247C47.5579 27.9998 47.3678 28.0343 47.2015 28.1234C47.0351 28.2125 46.901 28.3516 46.818 28.5211C46.7308 28.3353 46.5903 28.1797 46.4144 28.0739C46.2384 27.9682 46.0351 27.9172 45.8301 27.9273C45.6251 27.9374 45.4277 28.0083 45.2631 28.1308C45.0985 28.2534 44.974 28.4221 44.9055 28.6156C44.4555 27.6391 43.308 27.8641 43.0515 28.8541C42.714 28.0936 41.7915 28.0981 41.472 28.9801C40.6305 28.3591 39.969 28.9801 39.834 30.0016C39.7523 31.7386 39.8245 33.4794 40.05 35.2036C38.5245 34.8616 39.7125 38.4346 40.6215 38.5201C40.779 39.8701 41.337 41.3551 42.4215 41.7151C42.4215 41.8951 42.3945 42.0796 42.3945 42.2596C39.4849 42.7242 36.6849 43.7171 34.1325 45.1891C32.7285 44.1991 29.6055 42.8536 26.604 43.1011C26.0602 41.9521 25.6509 40.7441 25.3845 39.5011C25.1865 38.4166 25.695 37.9891 25.6905 37.0531C26.2731 35.8789 26.4183 34.5356 26.1 33.2641C24.6825 28.7641 16.119 30.4741 16.362 35.4151C16.3935 35.9776 16.443 36.5401 16.4925 36.9766C15.435 37.2961 15.5925 37.3726 15.885 38.6596C16.0425 39.3616 16.2225 39.9421 16.9605 39.7891C17.298 41.2516 18.1485 43.5871 20.1555 43.5871C20.277 43.5871 20.1555 43.5106 20.268 44.2666C15.2325 46.4581 8.91 50.5666 7.272 57.7666C6.876 59.5036 6.6375 61.9696 7.7715 63.8326C9.018 65.9071 11.223 66.0376 12.807 65.9341C12.4362 67.9713 12.3168 70.0463 12.4515 72.1126C12.4523 72.1415 12.4611 72.1695 12.4768 72.1938C12.4925 72.218 12.5145 72.2375 12.5405 72.25C12.5665 72.2626 12.5955 72.2677 12.6242 72.2649C12.653 72.2621 12.6804 72.2514 12.7035 72.2341C12.9465 72.0901 12.4695 71.9371 13.23 65.9026C17.469 65.5111 21.51 63.6886 25.245 61.7716C25.8615 62.2216 26.4735 62.6716 27.108 63.0766C27.6297 64.1314 28.4291 65.024 29.4202 65.6583C30.4113 66.2926 31.5567 66.6447 32.733 66.6766C32.6205 68.5709 32.6205 70.4703 32.733 72.3646C32.7347 72.3875 32.741 72.4098 32.7514 72.4302C32.7619 72.4507 32.7764 72.4688 32.7941 72.4835C32.8117 72.4982 32.8321 72.5092 32.8541 72.5158C32.8761 72.5224 32.8992 72.5246 32.922 72.5221C33.309 72.4861 32.8095 72.2926 33.1155 66.6721C36.8595 66.6721 39.933 64.2286 43.0155 62.3611C46.6425 64.0216 55.5345 67.1131 60.237 66.2221C60.453 68.1391 60.4215 69.9571 60.606 71.8111C60.612 71.8444 60.6294 71.8745 60.6553 71.8962C60.6812 71.9179 60.714 71.9297 60.7478 71.9297C60.7816 71.9297 60.8143 71.9179 60.8402 71.8962C60.8661 71.8745 60.8836 71.8444 60.8895 71.8111C61.0076 69.9167 60.9307 68.0152 60.66 66.1366C63.9225 65.3626 65.925 63.0631 66.456 59.4901C66.672 59.3461 66.906 59.1841 67.149 58.9996C69.9345 60.1111 75.699 62.8156 78.516 62.9146C78.3855 65.0071 78.201 67.2166 78.1695 69.3856C78.1758 69.4222 78.1948 69.4555 78.2232 69.4795C78.2516 69.5034 78.2876 69.5166 78.3248 69.5166C78.3619 69.5166 78.3979 69.5034 78.4263 69.4795C78.4547 69.4555 78.4738 69.4222 78.48 69.3856C78.543 68.7871 78.9525 63.6796 78.93 62.9011C83.439 62.7976 84.15 59.1076 82.8 54.8506ZM50.688 35.6176C50.8095 35.4556 50.877 35.2666 51.0525 35.3206C51.6825 35.5051 51.1785 37.0711 50.652 37.7686C50.697 37.0531 50.7105 36.3286 50.688 35.6176ZM39.9465 35.6176C40.0905 35.6176 40.0725 35.6806 40.3965 35.7436L40.5765 37.9666C39.9105 37.3501 39.429 35.6266 39.9465 35.6266V35.6176ZM71.2125 35.1676C71.2316 35.1043 71.275 35.0513 71.3333 35.02C71.3915 34.9888 71.4598 34.982 71.523 35.0011C71.5863 35.0202 71.6393 35.0636 71.6706 35.1219C71.7018 35.1801 71.7086 35.2483 71.6895 35.3116C71.532 35.8696 71.4105 36.2746 71.307 36.6616C71.2804 36.7097 71.243 36.7511 71.1977 36.7823C71.1524 36.8135 71.1005 36.8338 71.046 36.8416C70.65 36.8551 71.073 35.5726 71.2125 35.1586V35.1676ZM63.639 36.9676C63.8955 36.7741 64.206 37.0216 64.2555 37.0261C64.6785 37.2961 65.1555 36.9046 65.034 36.7921L64.944 36.7201C64.611 36.4591 63.927 35.9191 64.071 35.5501C64.179 35.2711 64.62 35.3116 64.908 35.2981C64.9182 35.2978 64.9283 35.2951 64.9373 35.2904C64.9464 35.2856 64.9542 35.2789 64.9603 35.2707C64.9664 35.2624 64.9705 35.2529 64.9723 35.2429C64.9742 35.2328 64.9737 35.2224 64.971 35.2126C64.926 35.0686 64.872 34.9246 64.818 34.7626C66.5186 33.9191 68.3833 33.4584 70.281 33.4126C70.4745 33.8626 70.641 34.2901 70.7895 34.7131C70.227 35.0326 69.588 35.3836 69.4395 36.0226C69.3058 36.006 69.1701 36.0196 69.0424 36.0624C68.9146 36.1053 68.7982 36.1762 68.7015 36.2701C67.995 35.4196 65.07 35.4916 64.4805 35.5141C63.72 35.5456 65.727 37.0801 66.2805 37.5121C68.139 38.9566 69.354 37.9621 68.8905 36.6436C68.9555 36.5639 69.0409 36.5034 69.1376 36.4685C69.2343 36.4337 69.3386 36.4257 69.4395 36.4456C69.4563 36.5311 69.4835 36.6142 69.5205 36.6931C69.4981 36.682 69.4735 36.6762 69.4485 36.6762C69.4235 36.6762 69.3989 36.682 69.3765 36.6931C69.192 36.8101 69.3765 36.9676 69.7995 37.7191C69.7473 37.7722 69.6917 37.8218 69.633 37.8676C69.462 37.9936 69.6105 38.5426 70.182 37.8676C70.2675 37.7641 70.1055 37.4626 69.9255 37.1971C70.1427 37.3451 70.4031 37.4167 70.6654 37.4004C70.9278 37.3841 71.1773 37.2809 71.3745 37.1071C71.5712 38.3152 71.4598 39.5535 71.0505 40.7071C70.6005 41.8096 69.471 41.8726 69.7005 42.2911C69.7599 43.7747 69.639 45.2601 69.3405 46.7146C68.184 46.4626 65.907 43.6411 64.998 42.3316C65.0922 41.2374 64.951 40.1357 64.584 39.1006C64.2825 38.5786 63.684 38.3401 63.5265 37.7506C63.465 37.6191 63.443 37.4727 63.4629 37.3289C63.4829 37.1852 63.5441 37.0503 63.639 36.9406V36.9676ZM70.461 36.2161C70.4115 36.3646 70.38 36.5716 70.218 36.5716C70.056 36.5716 69.975 36.3826 69.993 36.2206C70.011 36.0586 70.056 35.6851 70.227 35.5861C70.2599 35.5698 70.2961 35.5614 70.3328 35.5614C70.3694 35.5614 70.4056 35.5698 70.4385 35.5861C70.65 35.6446 70.5375 35.9596 70.461 36.1891V36.2161ZM68.0355 37.2511C67.986 37.3726 67.9365 37.5931 67.7925 37.6606C67.7673 37.6729 67.7396 37.6793 67.7115 37.6793C67.6834 37.6793 67.6557 37.6729 67.6305 37.6606C67.3605 37.5616 67.6575 36.5581 67.9005 36.3646C67.9217 36.343 67.948 36.3271 67.977 36.3184C68.006 36.3096 68.0367 36.3083 68.0663 36.3146C68.0959 36.3209 68.1234 36.3345 68.1464 36.3543C68.1693 36.374 68.1869 36.3992 68.1975 36.4276C68.292 36.6346 68.0625 37.1566 68.0355 37.2241V37.2511ZM67.05 36.8146C66.9915 36.9316 66.9645 37.0396 66.8115 37.0396C66.7755 37.0421 66.7395 37.0357 66.7065 37.021C66.6736 37.0063 66.6447 36.9838 66.6225 36.9554C66.6003 36.9269 66.5854 36.8935 66.5791 36.858C66.5728 36.8224 66.5754 36.7859 66.5865 36.7516C66.636 36.6031 66.69 36.2656 66.87 36.1756C66.8985 36.1624 66.9294 36.1552 66.9609 36.1545C66.9923 36.1537 67.0235 36.1594 67.0526 36.1713C67.0817 36.1831 67.1081 36.2007 67.1301 36.2232C67.1521 36.2456 67.1692 36.2723 67.1805 36.3016C67.2435 36.4501 67.14 36.6526 67.05 36.8146ZM64.8 42.5836C66.078 44.7886 69.444 47.9836 69.705 46.9126C69.9994 45.6412 70.1354 44.3383 70.11 43.0336C76.275 45.2116 80.46 49.2031 82.2825 54.5896C80.9633 53.96 79.5138 53.6516 78.0525 53.6896C77.9895 52.2091 75.96 49.3471 75.1815 48.4876C75.024 48.3121 74.7315 48.5371 74.9025 48.7126C76.0697 50.0343 76.963 51.5746 77.5305 53.2441C75.3255 51.5836 70.884 49.2661 64.7955 51.1741C63.2159 48.4779 60.9095 46.2807 58.14 44.8336C60.1329 43.5302 62.425 42.7559 64.8 42.5836ZM41.3325 32.4316C44.0386 31.693 46.8819 31.6112 49.626 32.1931C49.5798 32.9557 49.6039 33.7209 49.698 34.4791H49.617C49.2435 32.7601 46.8495 32.2291 46.044 34.0291C45.6325 33.8895 45.1865 33.8895 44.775 34.0291C43.9965 32.4091 41.742 32.9311 41.328 34.5331H41.2425C41.3371 33.8369 41.3672 33.1334 41.3325 32.4316ZM47.4525 36.1351C47.5335 35.9056 48.2625 34.2046 48.735 34.1551C48.7743 34.1546 48.8132 34.1635 48.8484 34.181C48.8836 34.1985 48.9141 34.2242 48.9375 34.2559C48.9608 34.2875 48.9762 34.3243 48.9825 34.3631C48.9887 34.4019 48.9857 34.4417 48.9735 34.4791C48.5718 35.0513 48.2138 35.653 47.9025 36.2791C47.79 36.5581 47.349 36.4501 47.4525 36.1351ZM46.8 35.5051C46.746 35.6401 46.503 35.7211 46.4175 35.5636C46.332 35.4061 46.539 34.8076 47.124 33.9301C47.2725 33.7096 47.412 33.6016 47.5335 33.6196C47.573 33.6309 47.6092 33.6517 47.6389 33.6802C47.6685 33.7087 47.6908 33.744 47.7036 33.783C47.7165 33.8221 47.7196 33.8637 47.7127 33.9042C47.7058 33.9448 47.6891 33.983 47.664 34.0156C47.3215 34.4784 47.0317 34.978 46.8 35.5051ZM42.885 36.2521C43.0785 35.8291 43.2945 35.4016 43.5015 34.9831C43.5236 34.9427 43.5561 34.909 43.5957 34.8856C43.6353 34.8621 43.6805 34.8497 43.7265 34.8497C43.7725 34.8497 43.8177 34.8621 43.8573 34.8856C43.8969 34.909 43.9294 34.9427 43.9515 34.9831C43.9798 35.0258 43.9948 35.0759 43.9948 35.1271C43.9948 35.1783 43.9798 35.2284 43.9515 35.2711C43.7535 35.6626 43.551 36.0721 43.335 36.4681C43.164 36.6931 42.75 36.5221 42.885 36.2521ZM42.3405 35.6851L42.3135 35.7166C42.174 35.9191 41.823 35.7886 41.9175 35.5321C42.1773 34.8407 42.5091 34.1785 42.9075 33.5566C43.101 33.3226 43.4925 33.5251 43.3575 33.7996C43.038 34.4386 42.6465 35.0371 42.3405 35.6851ZM40.734 35.7256C41.022 35.6041 41.103 35.2756 41.184 34.9921L41.2785 34.9651C41.2549 35.2773 41.2933 35.5911 41.3913 35.8884C41.4894 36.1857 41.6453 36.4607 41.85 36.6976C42.0927 36.9359 42.3969 37.1022 42.7285 37.1778C43.0602 37.2533 43.4064 37.2353 43.7284 37.1256C44.0504 37.0159 44.3356 36.819 44.5522 36.5567C44.7688 36.2944 44.9082 35.977 44.955 35.6401C44.9085 36.0735 44.8889 36.5093 44.8965 36.9451C44.8965 37.2151 44.8335 37.5526 45.1665 37.5751H45.6165C45.8505 37.5751 45.9135 37.1701 45.6435 37.1656H45.3105C45.2843 36.3638 45.3279 35.5613 45.441 34.7671C45.4725 34.5466 45.153 34.5151 45.108 34.7221C44.91 35.6896 45.108 35.1361 44.9325 34.4206C45.2467 34.3079 45.5903 34.3079 45.9045 34.4206C45.8054 34.7814 45.7859 35.1594 45.8473 35.5284C45.9087 35.8975 46.0495 36.2488 46.26 36.5581C46.4204 36.7658 46.6235 36.9367 46.8557 37.0591C47.0878 37.1815 47.3435 37.2525 47.6056 37.2675C47.8676 37.2824 48.1297 37.2409 48.3743 37.1456C48.6188 37.0504 48.8401 36.9038 49.023 36.7156C49.4651 36.2223 49.7004 35.5777 49.68 34.9156H49.7655C49.8195 35.3071 49.9005 35.8471 50.3145 35.8156C50.2695 37.3546 50.4045 39.9916 49.185 40.9546C49.0275 41.0806 48.8475 41.2246 48.825 41.3686C48.7687 41.8454 48.7687 42.3272 48.825 42.8041C48.9555 44.0506 46.773 46.5166 45.6435 47.5696C43.4655 44.6086 42.84 44.3161 42.8445 41.7196C42.8445 41.4586 42.813 41.4181 42.633 41.3281C40.8105 40.4461 40.977 37.9036 40.734 35.7256ZM42.417 42.6556C42.4665 44.0371 43.551 45.9046 45.4635 47.9161C45.8505 48.4201 49.2705 44.2216 49.203 43.3126V42.5521C58.4145 43.6366 65.016 48.9376 66.069 56.0836C62.244 55.3321 57.411 56.2141 56.592 56.3716C56.2408 54.1336 55.5789 51.9556 54.6255 49.9006C54.6094 49.8606 54.5781 49.8287 54.5384 49.8118C54.4987 49.7949 54.454 49.7945 54.414 49.8106C54.374 49.8267 54.3421 49.858 54.3252 49.8977C54.3083 49.9374 54.3079 49.9821 54.324 50.0221C55.1514 52.0504 55.755 54.1629 56.124 56.3221C53.757 53.8291 50.157 52.7221 45.1395 52.9471C42.1194 53.0871 39.1195 53.5135 36.18 54.2206C36.4151 52.8483 36.9752 51.5522 37.8135 50.4406C37.8319 50.4071 37.8374 50.368 37.8291 50.3307C37.8209 50.2934 37.7993 50.2604 37.7684 50.2378C37.7376 50.2152 37.6996 50.2046 37.6615 50.208C37.6235 50.2114 37.5879 50.2285 37.5615 50.2561C36.616 51.4244 35.9951 52.8213 35.7615 54.3061C32.4989 55.0887 29.3305 56.2218 26.3115 57.6856C26.7255 48.8701 34.875 44.1451 42.417 42.6556ZM22.9005 34.3216C22.8959 34.7489 22.9215 35.1759 22.977 35.5996C21.357 35.6401 18.783 36.2701 16.866 36.8641C16.8165 36.4681 16.704 35.7481 16.6995 35.3206C18.6284 34.4013 20.7805 34.0546 22.9005 34.3216ZM21.4695 36.7381C20.5695 38.2681 20.763 38.5381 20.4615 38.5381C20.4277 38.5402 20.3938 38.5341 20.3629 38.5203C20.3319 38.5066 20.3047 38.4856 20.2835 38.4591C20.2623 38.4326 20.2478 38.4015 20.2412 38.3682C20.2346 38.335 20.2361 38.3006 20.2455 38.2681C20.655 36.7201 21.0465 36.4321 21.2445 36.3961C21.2877 36.3873 21.3325 36.3916 21.3731 36.4085C21.4138 36.4255 21.4485 36.4542 21.4727 36.491C21.4969 36.5278 21.5096 36.571 21.509 36.615C21.5084 36.6591 21.4947 36.7019 21.4695 36.7381ZM20.079 37.0756C19.9125 37.3501 19.872 37.7326 19.629 37.6741C19.386 37.6156 19.5615 37.0666 19.7055 36.7741C19.8495 36.4816 19.9755 36.4771 20.061 36.4996C20.1092 36.5127 20.152 36.5406 20.1835 36.5793C20.215 36.6181 20.2335 36.6657 20.2365 36.7156C20.2189 36.848 20.1643 36.9728 20.079 37.0756ZM16.731 37.9756C16.6815 38.0926 16.677 38.4526 16.434 38.4526C16.3867 38.4544 16.3402 38.4404 16.3018 38.4126C16.2635 38.3849 16.2356 38.3451 16.2225 38.2996C16.1987 37.9848 16.2988 37.6731 16.5015 37.4311C16.5433 37.3937 16.5959 37.3706 16.6516 37.3649C16.7074 37.3592 16.7635 37.3714 16.812 37.3996C16.92 37.4716 16.8975 37.6606 16.731 37.9621V37.9756ZM16.8975 39.0241C17.307 37.5526 17.541 37.3366 17.6805 37.3051C17.7092 37.2985 17.7391 37.3 17.767 37.3096C17.7948 37.3191 17.8194 37.3363 17.838 37.3591C17.8992 37.43 17.9299 37.5222 17.9235 37.6156L17.3295 39.1501C17.311 39.2074 17.2705 39.255 17.2169 39.2824C17.1633 39.3098 17.101 39.3148 17.0438 39.2963C16.9865 39.2778 16.9389 39.2373 16.9114 39.1838C16.884 39.1302 16.879 39.0679 16.8975 39.0106V39.0241ZM17.3475 39.7036C18.2115 39.4516 18.4905 39.5236 18.396 38.2096C18.3645 37.8361 18.2925 36.9856 18.6705 36.9991C18.9765 36.9991 18.9855 38.4211 19.44 38.8621C19.8945 39.3031 20.484 38.9926 20.979 38.8621C22.329 38.4931 22.032 37.9171 21.933 36.1306L23.067 36.0406C23.5755 38.6776 24.2595 36.7021 24.7185 36.4051C25.011 36.2206 25.263 36.6256 25.317 36.9361C25.4205 37.6021 24.867 38.3311 24.984 39.3076C25.2492 40.721 25.7033 42.0923 26.334 43.3846C25.3485 45.2566 22.518 46.9846 21.258 47.6686C20.727 45.7426 20.682 43.2136 20.358 43.2226C18.864 43.2316 17.883 42.1021 17.3295 39.6901L17.3475 39.7036ZM20.3085 44.6986C20.3895 45.3781 20.7225 48.2986 21.2085 48.0556C22.4325 47.4796 26.1585 45.0316 26.6895 43.4566C27.477 43.6366 29.934 43.1596 33.75 45.4591C30.934 47.1411 28.6744 49.6135 27.252 52.5691C23.6115 52.1191 19.107 51.5566 15.3225 53.5546C16.479 50.8276 17.172 50.5576 16.8435 50.3416C16.8265 50.33 16.8073 50.3219 16.7871 50.3178C16.7669 50.3138 16.7461 50.3139 16.7259 50.3181C16.7057 50.3223 16.6866 50.3305 16.6697 50.3423C16.6528 50.3541 16.6384 50.3691 16.6275 50.3866C16.5105 50.5621 14.868 53.2756 14.8275 53.8291C14.193 54.2161 12.8385 55.2061 12.4335 55.9846C10.7792 56.0169 9.16706 56.5126 7.7805 57.4156C9.1485 52.1191 13.473 47.7226 20.2905 44.6851L20.3085 44.6986ZM8.64 64.3501C6.921 62.5501 7.29 59.5396 7.6455 57.8881C12.0375 55.0036 17.8425 56.2366 24.9075 61.5601C22.5315 62.5771 12.15 67.9906 8.64 64.3501ZM12.888 55.9756C16.461 52.0201 21.627 52.2721 27.0675 52.9426C25.6725 56.1601 25.551 59.5576 26.7165 62.3296C22.6665 59.2966 17.883 55.9621 12.888 55.9621V55.9756ZM33.084 66.3256C28.6515 66.3256 26.271 62.4331 26.334 58.1131C32.634 55.2826 38.1375 53.8336 44.1675 53.4151C49.6755 53.0326 53.3835 54.0361 55.8135 56.5651C43.9425 59.2246 39.042 66.3121 33.084 66.3121V66.3256ZM60.3 65.8306C55.8945 66.8251 48.6 64.2241 43.416 62.1496C51.678 57.2716 59.112 55.4311 66.1275 56.5246C66.681 61.5511 64.611 64.8541 60.3 65.8306ZM66.5415 59.0176C66.7751 56.4155 66.225 53.803 64.962 51.5161C69.795 50.2651 73.8765 50.9941 77.4225 53.7391C72.765 54.0856 68.0715 57.7216 66.537 59.0176H66.5415ZM78.7815 62.5141C76.0275 62.5141 70.2315 59.8141 67.563 58.7251C70.416 56.5651 73.7955 54.2746 77.8635 54.1126C79.4527 54.0144 81.0377 54.362 82.44 55.1161C83.646 59.1841 83.043 62.4871 78.777 62.5141H78.7815Z" fill="black"/>
</svg>
