<svg width="80" height="80" viewBox="0 0 80 80" fill="none" xmlns="http://www.w3.org/2000/svg">
<path d="M46.7678 64.5365C45.8834 63.8845 45.3146 63.6825 44.3418 63.3181C43.1782 62.8821 41.9578 63.0517 40.905 63.2449C39.3779 63.5253 33.5359 64.4657 34.5891 65.5409C35.3003 66.2657 36.6927 67.1241 38.0679 67.2937C39.5835 67.4821 41.1938 66.9357 42.5422 66.5969C43.5194 66.3501 44.0418 66.2821 45.8474 65.8261C46.3058 65.7097 47.0606 65.6109 47.1502 65.1801C47.2154 64.8669 46.8786 64.6181 46.7678 64.5365ZM45.9614 65.3881C45.4786 65.4973 45.111 65.6141 43.5826 65.9465C41.243 66.4541 39.7291 67.0965 38.1167 66.8969C36.8367 66.7385 35.5387 65.9381 34.8715 65.2889C34.9623 65.0537 36.2907 64.5905 37.8335 64.2569C38.9687 64.0117 40.1098 63.7973 40.977 63.6381C42.0786 63.4361 43.1562 63.3013 44.2014 63.6925C45.1646 64.0533 45.6882 64.2373 46.5302 64.8585C46.7478 65.0189 46.7586 65.0977 46.7586 65.0977C46.7158 65.2161 46.1678 65.3405 45.9614 65.3881Z" fill="black"/>
<path d="M53.1214 58.3407C52.7714 58.0763 52.207 57.7699 51.4926 57.3819C50.141 56.6471 48.0354 55.4643 46.057 54.5951C45.3058 54.2651 43.9078 54.1399 42.7322 54.2971C40.9706 54.5327 27.8733 56.9095 21.5641 58.3575C14.2557 60.0351 11.4265 60.9667 10.3401 61.4535C10.0445 61.5859 9.87569 61.7503 9.83929 61.9423C9.79129 62.1931 9.97369 62.3447 10.0929 62.4699C11.0673 63.4923 12.2113 64.1787 13.5797 64.9355C15.5297 66.0143 17.2369 67.0487 19.3525 67.0487C20.6441 67.0487 22.6561 66.4743 25.5521 65.6963C32.0973 63.9387 33.8485 63.5275 44.803 61.2983C48.9938 60.4455 52.3038 59.7719 52.9162 59.5507C53.667 59.2791 53.7814 58.8407 53.121 58.3415L53.1214 58.3407ZM10.3833 62.1939C10.2513 62.0555 10.0901 62.0035 10.5041 61.8183C11.3797 61.4263 13.9933 60.5055 21.6537 58.7471C27.9541 57.3011 41.0278 54.9283 42.7854 54.6935C43.7126 54.5695 45.1214 54.6207 45.8962 54.9611C46.2322 55.1087 46.6718 55.3111 47.2162 55.5763C35.3737 57.4839 23.4037 60.0671 11.6237 63.2635C10.9377 62.7751 10.6237 62.4459 10.3833 62.1939ZM12.0597 63.5619C23.9013 60.3615 35.9321 57.7763 47.8286 55.8803C49.0774 56.5087 50.0158 57.0299 50.7858 57.4519C38.7613 59.2183 26.7645 61.8623 15.1169 65.3227C14.1581 64.8059 12.9305 64.1351 12.0597 63.5619ZM52.7806 59.1739C51.609 59.5971 39.0477 61.9671 32.9073 63.4043C26.8885 64.8131 22.4221 66.2407 20.2193 66.5835C19.1261 66.7531 17.9309 66.5563 17.2305 66.2855C16.5197 66.0103 16.1833 65.8767 15.6269 65.5919C27.3009 62.1447 39.3201 59.5107 51.3642 57.7675C52.033 58.1307 52.5642 58.4211 52.8798 58.6599C53.2406 58.9327 53.2582 59.0015 52.7802 59.1739H52.7806Z" fill="black"/>
<path d="M63.3737 61.598C59.9113 59.0592 51.9781 54.7252 47.9505 52.9552C47.2113 52.6304 46.0365 52.4292 44.8057 52.3856C46.2357 51.7524 46.9253 50.6508 47.0553 49.4636C47.3185 47.0564 47.4945 43.9488 47.5889 40.6424C46.7205 40.8768 45.8065 41.0188 44.9121 41.0808C44.8593 43.2508 44.7569 45.2588 44.5977 46.888C44.5073 47.8108 43.9045 48.6296 43.0233 49.0256C36.7237 51.8564 19.3449 56.1564 8.70092 56.7196C7.30132 56.7916 6.04972 55.8648 5.79492 54.5584C4.31932 46.9848 4.39572 37.0981 5.62412 31.2361C5.77652 30.5097 6.25612 29.8697 6.94052 29.4805C12.9705 26.0521 34.3937 21.4593 41.5617 21.4673C42.9545 21.4689 44.1333 22.4573 44.3193 23.7681C45.3361 23.8053 46.3797 23.9889 47.3777 24.2921C47.3261 23.5313 47.2677 22.8321 47.2025 22.2097C47.0169 20.4265 45.5353 19.0533 43.7557 19.0161C35.8045 18.8517 11.6721 23.8153 4.77892 27.7817C3.90333 28.2853 3.28053 29.1321 3.07053 30.1049C1.55693 37.1117 1.30573 48.7896 2.80053 57.71C3.08933 59.434 4.61892 60.7372 6.43052 60.6732C6.66052 60.6648 6.89332 60.6544 7.12852 60.6428C6.61972 60.8264 6.17852 61.0008 5.81492 61.1636C5.41852 61.3408 5.00812 61.6256 5.07612 62.0532C4.79052 62.9896 4.97412 64.718 5.27332 65.028C7.04532 66.862 8.88132 68.454 12.1097 70.2404C15.5681 72.1532 18.7341 73.4988 20.7817 74.2908C21.9453 74.7408 24.1689 74.9748 26.1605 74.6656C29.0737 74.2124 34.0397 73.0396 40.9137 71.4204C46.4661 70.1128 57.4093 67.628 62.7745 65.6904C63.4757 65.4372 63.7201 64.0972 63.7785 63.6924C63.8825 62.9672 63.9337 62.01 63.3725 61.5988L63.3737 61.598ZM63.3445 62.2172C63.3269 62.338 63.1325 62.5304 62.6393 62.7088C54.9933 65.4708 35.3973 69.7432 26.0997 71.1888C24.3661 71.4584 22.1421 71.3068 20.9261 70.8364C16.6573 69.1852 8.73692 65.4108 5.56012 62.1436C5.48692 62.0684 5.45572 62 5.46732 61.94C5.75972 60.4128 39.0557 52.7752 44.3125 52.7752C45.6605 52.7752 46.9953 52.9728 47.7893 53.3216C51.7549 55.0644 59.7005 59.4016 63.1369 61.9208C63.2213 61.9824 63.3609 62.1036 63.3445 62.2172Z" fill="black"/>
<path d="M29.0121 33.1281C28.5465 32.1797 27.3173 32.0229 26.4265 32.4169C25.2845 32.9221 24.7041 34.2301 24.3545 35.3489C23.5841 37.8129 23.5341 41.5426 25.6129 43.095C26.8073 43.987 28.5489 43.8226 29.6313 42.8094C29.7521 42.6962 29.6265 42.4466 29.4601 42.5158C28.5765 42.8826 27.5053 43.6622 26.1737 42.8746C24.1885 41.7002 24.1401 38.4629 24.6345 36.2017C24.8705 35.1233 25.2385 33.9253 26.0781 33.1569C26.8517 32.4493 28.2461 32.2641 28.9529 33.1741C28.9805 33.2097 29.0293 33.1645 29.0117 33.1285L29.0121 33.1281Z" fill="black"/>
<path d="M23.623 31.2866C22.2398 31.9594 21.4814 33.3714 20.977 34.7618C20.3866 36.3886 20.1506 38.143 20.2558 39.869C20.4402 42.9002 21.747 46.5586 24.5946 47.561C25.9674 48.0442 27.7534 47.8818 28.665 46.6334C28.7542 46.5114 28.5682 46.391 28.4662 46.4802C27.5006 47.3238 26.1654 47.5746 24.943 47.2214C23.6166 46.8386 22.6258 45.767 21.975 44.5906C20.4686 41.8674 20.2894 38.4558 21.1214 35.4966C21.5582 33.943 22.3034 32.3214 23.6822 31.3886C23.7454 31.3458 23.6914 31.2534 23.623 31.2866Z" fill="black"/>
<path d="M31.8262 33.0643C31.9842 33.0631 32.1402 33.0627 32.2946 33.0619C30.8254 29.7279 27.7742 28.8319 25.6534 29.9903C25.6086 30.0151 25.639 30.0863 25.6882 30.0727C28.6422 29.2423 30.7394 30.7351 31.8262 33.0643Z" fill="black"/>
<path d="M32.0322 40.7494C31.9806 40.883 31.9258 41.0154 31.8678 41.1458C31.597 41.755 31.2478 42.3222 30.9282 42.9058C30.8454 43.057 31.0406 43.2102 31.1666 43.0898C31.8294 42.4578 32.3106 41.5538 32.6302 40.5466C32.4302 40.6146 32.2306 40.6822 32.0322 40.7494Z" fill="black"/>
<path d="M17.7641 33.8473C19.6221 28.0985 24.5597 25.6969 28.5769 27.0665C29.8097 27.4869 30.8553 28.2713 31.7297 29.2249C31.8309 29.3353 32.0169 29.1921 31.9373 29.0649C30.6601 27.0257 27.9741 26.0909 25.6553 26.2997C21.9465 26.6337 18.6353 29.5153 17.6877 33.8265C17.6769 33.8761 17.7485 33.8957 17.7641 33.8473Z" fill="black"/>
<path d="M18.3846 46.1342C19.1246 48.4962 21.1554 50.2574 23.509 50.923C25.9978 51.627 28.655 50.9702 30.703 49.439C31.7186 48.6798 33.1046 47.2391 33.451 46.1259C33.4998 45.9687 33.269 45.8155 33.1594 45.9563C32.7794 46.4443 32.4886 46.9955 32.0958 47.4775C30.9226 48.9183 29.3734 49.959 27.6822 50.4494C23.7906 51.5774 19.797 49.4026 18.5038 46.101C18.4754 46.0286 18.3602 46.0566 18.3846 46.1342Z" fill="black"/>
<path d="M41.6982 37.6098C41.1826 37.8366 40.6438 38.0206 40.099 38.085C39.6009 38.1446 39.3589 37.885 38.7841 37.8438C38.6265 37.8326 38.1717 37.9406 37.6477 38.0858C36.5489 38.009 35.5261 35.4286 36.2693 33.9138C36.3209 33.809 36.3945 33.7046 36.4857 33.6162C37.8005 33.3234 37.8405 33.3002 38.2285 32.7642C38.9573 31.7574 39.9365 30.9674 41.0458 30.3878C41.0522 30.235 41.0594 30.0818 41.0682 29.9286C39.8173 30.547 38.7057 31.4202 37.8805 32.563C37.6573 32.8722 37.5865 32.9298 37.2901 33.0042C37.1925 32.9126 36.8757 32.8042 35.7337 32.8594C34.9833 32.8954 28.7769 32.7526 26.5953 33.1166C26.4865 33.1346 26.4125 33.2378 26.4309 33.3466C26.4489 33.4554 26.5521 33.5294 26.6609 33.511C28.8065 33.1534 34.9709 33.2962 35.7529 33.259C35.8413 33.2546 36.0593 33.2526 36.2929 33.255C36.1377 33.3806 36.0045 33.5454 35.9101 33.7378C35.1009 35.3862 36.1001 37.9138 37.1605 38.3766C37.2813 38.4294 37.4581 38.4762 37.6433 38.4862C35.5641 39.4194 28.2961 41.8099 27.1805 42.0971C26.9541 42.1555 26.9961 42.4907 27.2301 42.4907C27.5485 42.4907 37.2877 39.2858 38.3361 38.577C38.4637 38.4906 38.4121 38.3626 38.4009 38.3022C38.4177 38.2978 38.4341 38.2938 38.4513 38.2894C39.1133 38.1202 39.3917 38.5714 40.1462 38.4818C40.7062 38.415 41.2634 38.2302 41.7922 38.0026C41.7598 37.8722 41.7286 37.741 41.6978 37.6094L41.6982 37.6098Z" fill="black"/>
<path d="M49.999 31.397C50.0254 32.0186 50.0686 32.481 50.1534 33.0706C50.877 32.8974 50.9366 32.2962 50.5886 31.8526C50.4506 31.677 50.2454 31.5262 49.999 31.397Z" fill="black"/>
<path d="M38.3513 36.7993C40.1273 36.3985 41.6689 35.1065 42.3749 33.4285C42.4085 33.3481 42.4901 33.2993 42.5769 33.3069C44.1449 33.4453 45.7553 33.2353 47.2349 32.6997C47.6701 32.5425 47.6145 32.3565 47.1977 32.1561C45.0445 31.1213 42.5021 30.9385 40.2229 31.6537C40.1173 31.6869 40.0053 31.6281 39.9721 31.5229C39.9389 31.4177 39.9977 31.3053 40.1029 31.2721C42.4781 30.5269 45.1269 30.7177 47.3705 31.7957C47.7929 31.9985 47.9937 32.2873 47.9217 32.5885C47.8553 32.8677 47.5925 32.9957 47.3709 33.0757C45.8821 33.6145 44.2665 33.8353 42.6853 33.7169C41.9061 35.4469 40.2921 36.7709 38.4397 37.1893C38.1789 37.2477 38.0961 36.8573 38.3513 36.7993Z" fill="black"/>
<path d="M65.2888 5.62988C60.5328 4.43588 55.462 5.71668 51.01 9.23588C44.6076 14.2971 40.8952 22.9019 40.8176 31.2863C40.9508 31.2551 41.0844 31.2275 41.2184 31.2019C41.25 28.8243 41.58 26.4419 42.1712 24.1355C44.7032 23.6127 48.0336 24.3347 50.3748 25.9115C49.246 30.4711 49.7992 34.8887 51.5692 37.8975C50.0472 40.2463 46.0672 41.0903 42.9188 40.8851C42.1988 39.0575 41.7184 37.1499 41.4564 35.2075C41.3436 35.3295 41.2256 35.4471 41.1032 35.5595C41.4172 37.7099 41.992 39.8011 42.8452 41.7651C45.8788 48.7439 51.5028 52.1171 57.2196 52.1171C65.9192 52.1163 74.4676 44.3155 77.278 33.1183C80.1864 21.5299 75.85 8.28028 65.2888 5.62988ZM71.446 9.44628C71.848 13.2095 70.026 16.1723 66.6708 17.2263C65.2408 15.4499 63.286 14.4475 61.0712 14.5203C60.6188 11.4719 58.7592 8.52028 56.1532 6.69628C61.7696 4.48668 67.39 5.70268 71.4456 9.44628H71.446ZM56.236 41.1747C51.422 39.9663 48.9732 33.1339 50.7776 25.9443C52.1304 20.5539 56.2152 14.9127 61.284 14.9127C63.9012 14.9127 66.5796 16.5635 67.98 20.4307C70.1424 26.4011 68.0628 34.6859 63.3372 38.9275C61.0752 40.9579 58.5536 41.7559 56.236 41.1747ZM68.1372 47.4467C67.8408 44.5351 66.2508 41.5307 63.722 39.1155C66.1948 36.8407 67.832 33.6303 68.6436 30.3563C71.6484 31.4031 74.6368 31.4191 77.4736 30.0635C76.4008 37.3135 72.8568 43.5403 68.1372 47.4467Z" fill="black"/>
</svg>
