<svg width="80" height="80" viewBox="0 0 80 80" fill="none" xmlns="http://www.w3.org/2000/svg">
<path fill-rule="evenodd" clip-rule="evenodd" d="M16.8961 45.8C19.0481 46.2 20.5681 45.448 21.3521 45.276C21.5801 45.228 22.5881 45.676 24.1801 45.676C24.637 45.6528 25.0846 45.5386 25.4967 45.34C25.9088 45.1415 26.2772 44.8627 26.5801 44.52C26.6321 44.46 26.5361 44.384 26.4841 44.444C25.867 45.0516 25.0381 45.3958 24.1721 45.404C23.3301 45.3674 22.4952 45.2332 21.6841 45.004C21.1361 44.88 21.2201 45.032 19.8321 45.404C18.884 45.6622 17.8935 45.7262 16.9201 45.592C15.6881 45.416 15.4561 45.14 15.4041 45.28C15.3988 45.2954 15.3996 45.3123 15.4062 45.3271C15.4129 45.342 15.425 45.3538 15.4401 45.36C15.9105 45.5522 16.398 45.6996 16.8961 45.8ZM45.0201 40.4C46.7841 40.26 48.2201 38.704 48.0881 37.764C48.0905 37.7545 48.0908 37.7447 48.0888 37.7351C48.0868 37.7256 48.0826 37.7166 48.0767 37.7089C48.0707 37.7012 48.063 37.6949 48.0543 37.6906C48.0455 37.6863 48.0359 37.6841 48.0261 37.6841C48.0163 37.6841 48.0067 37.6863 47.998 37.6906C47.9892 37.6949 47.9815 37.7012 47.9755 37.7089C47.9696 37.7166 47.9654 37.7256 47.9634 37.7351C47.9615 37.7447 47.9617 37.7545 47.9641 37.764C47.9001 38.1321 47.7241 38.4716 47.4601 38.736C46.9094 39.3458 46.2248 39.8195 45.4601 40.12C44.9921 40.308 44.9241 40.256 44.9401 40.348C44.9408 40.3572 44.9436 40.3661 44.9483 40.3741C44.953 40.382 44.9595 40.3888 44.9672 40.3938C44.975 40.3988 44.9838 40.402 44.9929 40.4031C45.0021 40.4042 45.0114 40.4031 45.0201 40.4ZM10.9721 47.076C10.9875 47.0707 11.0001 47.0595 11.0073 47.0449C11.0144 47.0302 11.0154 47.0134 11.0101 46.998C11.0048 46.9826 10.9936 46.97 10.979 46.9628C10.9643 46.9557 10.9475 46.9547 10.9321 46.96C9.9462 47.1735 8.92601 47.1735 7.9401 46.96C7.5161 46.852 7.4921 46.764 7.4481 46.844C7.44035 46.858 7.4381 46.8743 7.4418 46.8899C7.4455 46.9054 7.45489 46.919 7.4681 46.928C8.4001 47.6 9.9561 47.572 10.9721 47.076ZM59.8961 17.836C60.0281 17.88 59.8961 17.7 60.5561 16.524C61.8961 14.096 64.3041 11.968 66.7481 10.604C67.7361 10.052 67.8201 10.108 67.7801 10.008C67.7724 9.99335 67.7596 9.98203 67.7441 9.97613C67.7287 9.97024 67.7116 9.97019 67.6961 9.97599C63.6201 11.576 60.6761 14.896 59.8561 17.756C59.853 17.7638 59.8516 17.7723 59.8519 17.7807C59.8523 17.7891 59.8544 17.7974 59.8582 17.8049C59.862 17.8125 59.8673 17.8192 59.8738 17.8245C59.8804 17.8299 59.888 17.8338 59.8961 17.836ZM71.8241 21.024C70.0521 19.696 67.2441 19.06 65.0241 18.788C63.5415 18.5905 62.0413 18.561 60.5521 18.7C60.5437 18.7005 60.5355 18.7027 60.5279 18.7064C60.5203 18.7101 60.5136 18.7152 60.508 18.7215C60.5024 18.7278 60.4981 18.7352 60.4954 18.7432C60.4927 18.7512 60.4916 18.7596 60.4921 18.768C60.4921 18.876 60.5161 18.768 61.9481 18.824C64.8841 18.928 69.4841 19.624 71.7361 21.124C71.8201 21.168 71.8921 21.068 71.8241 21.024ZM58.0001 41.952C57.7405 42.0824 57.4627 42.1728 57.1761 42.22C57.1688 42.2166 57.1608 42.2146 57.1527 42.2143C57.1446 42.214 57.1365 42.2152 57.1289 42.218C57.1213 42.2208 57.1143 42.2251 57.1083 42.2305C57.1024 42.236 57.0975 42.2426 57.0941 42.25C57.0907 42.2573 57.0888 42.2653 57.0884 42.2734C57.0881 42.2815 57.0893 42.2896 57.0921 42.2972C57.0949 42.3048 57.0992 42.3118 57.1047 42.3178C57.1101 42.3238 57.1167 42.3286 57.1241 42.332C57.2037 42.39 57.2956 42.4285 57.3927 42.4447C57.4898 42.4608 57.5894 42.454 57.6834 42.4249C57.7774 42.3957 57.8633 42.3451 57.9343 42.2768C58.0052 42.2086 58.0593 42.1248 58.0921 42.032C58.1027 42.0198 58.108 42.0039 58.1069 41.9878C58.1058 41.9716 58.0983 41.9566 58.0861 41.946C58.0739 41.9354 58.058 41.9301 58.0419 41.9312C58.0257 41.9323 58.0107 41.9398 58.0001 41.952ZM8.8441 59.572C8.0881 59.64 8.2201 59.972 8.9761 59.868C9.7321 59.764 9.3281 59.528 8.8441 59.572ZM20.6921 58.084C20.6126 58.0901 20.5338 58.1021 20.4561 58.12C20.0241 58.24 20.1201 58.388 20.5481 58.396C21.3801 58.4 21.4281 58.028 20.6921 58.084ZM8.4361 68.244C8.1081 68.244 7.6921 68.424 8.2361 68.536C8.36872 68.5556 8.50349 68.5556 8.6361 68.536C9.2001 68.4 8.7321 68.236 8.4361 68.244ZM20.0801 66.096C19.4601 66.124 19.7081 66.36 20.0801 66.396C20.7281 66.464 20.8881 66.064 20.0801 66.096ZM31.7441 71.964C30.9441 72.004 31.6241 72.324 32.1441 72.264C32.6641 72.204 32.5081 71.924 31.7441 71.964ZM43.9441 68.868C43.1441 68.836 43.4281 69.184 44.0161 69.18C44.4761 69.176 44.6321 68.904 43.9441 68.868ZM57.2521 73.528C56.7281 73.528 56.4161 73.748 57.0041 73.828C57.1716 73.8459 57.3406 73.8459 57.5081 73.828C58.1161 73.708 57.7201 73.52 57.2521 73.528ZM66.8961 63.496C67.7681 63.568 67.7881 63.24 66.8961 63.188C65.9321 63.128 66.2521 63.444 66.8961 63.496ZM72.9201 61.624C72.6721 61.664 72.5201 61.804 72.8441 61.896C73.003 61.936 73.1693 61.936 73.3281 61.896C73.8081 61.704 73.2921 61.564 72.9201 61.624ZM17.3881 20.628C17.9385 20.627 18.4833 20.5171 18.9912 20.3048C19.499 20.0924 19.9598 19.7818 20.3472 19.3907C20.7345 18.9997 21.0407 18.5359 21.2482 18.0261C21.4557 17.5162 21.5603 16.9704 21.5561 16.42C21.5225 15.3364 21.0685 14.3084 20.2901 13.5538C19.5118 12.7992 18.4702 12.3772 17.3861 12.3772C16.302 12.3772 15.2604 12.7992 14.4821 13.5538C13.7037 14.3084 13.2497 15.3364 13.2161 16.42C13.2119 16.9707 13.3167 17.5169 13.5244 18.027C13.7321 18.5371 14.0387 19.001 14.4264 19.3922C14.8142 19.7833 15.2755 20.0938 15.7838 20.3059C16.2921 20.518 16.8373 20.6275 17.3881 20.628ZM14.6081 13.632C14.964 13.251 15.3944 12.9471 15.8727 12.7394C16.3509 12.5317 16.8667 12.4245 17.3881 12.4245C17.9095 12.4245 18.4253 12.5317 18.9036 12.7394C19.3818 12.9471 19.8122 13.251 20.1681 13.632C20.8885 14.3769 21.2885 15.3743 21.2825 16.4105C21.2765 17.4468 20.865 18.4394 20.1361 19.176C19.7762 19.5386 19.3481 19.8263 18.8765 20.0227C18.4048 20.2191 17.899 20.3202 17.3881 20.3202C16.8772 20.3202 16.3714 20.2191 15.8998 20.0227C15.4281 19.8263 15 19.5386 14.6401 19.176C13.9112 18.4394 13.4997 17.4468 13.4937 16.4105C13.4877 15.3743 13.8877 14.3769 14.6081 13.632ZM59.9561 18.112L59.9521 18.104V18.108L59.9561 18.112ZM49.6841 24.68C49.6841 24.68 50.7121 23.964 50.7961 23.9C51.2321 23.564 51.7681 23.228 52.1961 22.952C53.3361 22.22 53.2921 22.152 54.8161 21.308C55.2561 21.06 58.9721 19.048 59.2961 18.856C59.3089 18.847 59.3179 18.8336 59.3215 18.8184C59.3252 18.8032 59.3231 18.7872 59.3157 18.7734C59.3083 18.7596 59.2961 18.749 59.2815 18.7436C59.2668 18.7382 59.2507 18.7383 59.2361 18.744C57.7681 19.5 54.9121 20.712 52.7881 22.2C52.0549 22.6762 51.346 23.1889 50.6641 23.736C50.2821 24.021 49.9149 24.3254 49.5641 24.648C49.5639 24.6623 49.5684 24.6762 49.577 24.6876C49.5856 24.699 49.5978 24.7072 49.6116 24.7109C49.6254 24.7145 49.64 24.7135 49.6532 24.7079C49.6663 24.7023 49.6772 24.6925 49.6841 24.68ZM44.2241 47.692C44.4817 47.8291 44.7683 47.9032 45.0601 47.908C45.1881 47.908 45.2721 47.816 45.3001 47.628C45.3281 47.4384 45.3281 47.2456 45.3001 47.056C45.1641 46.152 44.9001 46.372 44.9601 46.468C44.7041 46.536 43.8481 47.496 44.2241 47.692ZM44.9841 46.608C44.9885 46.6099 44.9933 46.6108 44.9981 46.6108C45.0029 46.6108 45.0077 46.6099 45.0121 46.608C45.0448 46.9392 45.0448 47.2728 45.0121 47.604C44.8201 47.5736 44.6322 47.5213 44.4521 47.448C44.5887 47.1442 44.7679 46.8614 44.9841 46.608Z" fill="black"/>
<path fill-rule="evenodd" clip-rule="evenodd" d="M66.1521 22.7999L67.0841 21.8679L67.5441 23.1359C67.5761 23.2239 67.2481 23.0719 72.0681 25.0679C72.1441 25.0999 72.0961 25.0999 73.2681 24.6679C73.4281 26.0319 73.4121 26.0079 73.4641 26.0639C73.7841 26.4039 76.3041 29.0799 76.6641 29.3879C77.3481 29.9919 78.8441 25.7279 77.4081 23.4599C74.4961 18.8799 70.8001 17.5079 65.4481 17.1199C64.3921 17.0479 62.0401 17.4679 60.9961 17.6679C63.3401 16.3359 63.2361 16.4479 63.2281 16.3479L63.1521 15.2879L64.1441 15.4159C64.2081 15.4159 63.7961 15.6959 70.5001 11.2199C70.5961 11.1559 70.5721 11.2199 70.5721 9.95992C71.5081 9.78392 71.6241 9.76792 71.6641 9.75192C72.0161 9.60392 74.7801 8.46792 75.0881 8.24392C75.1259 8.22135 75.1537 8.18511 75.1656 8.14269C75.1775 8.10026 75.1727 8.05489 75.1521 8.01592C74.0521 6.07992 72.4081 5.95992 70.2481 6.34392C66.1841 7.05992 63.5361 9.67592 60.9561 12.8639C60.1702 13.9147 59.6836 15.1588 59.5481 16.4639C57.9841 13.8319 55.3041 12.8919 52.5401 11.7719C48.4721 10.1279 39.4081 10.0279 35.6641 12.6519C33.9068 13.8455 32.4943 15.4802 31.5681 17.3919C31.5361 17.4559 31.5281 17.5959 31.7161 17.6479C32.3841 17.8319 38.3721 17.6479 39.0681 17.6479C39.1641 17.6479 39.1681 17.5799 39.9841 16.9679C40.0401 17.1799 40.1081 17.4959 40.1441 17.6879C40.1516 17.7232 40.1715 17.7546 40.2 17.7766C40.2286 17.7986 40.2641 17.8097 40.3001 17.8079C46.5401 17.5559 46.1601 17.5919 46.2201 17.5279C46.2201 17.5279 46.8801 16.7799 47.1801 16.4839C47.2184 16.5954 47.2504 16.7089 47.2761 16.8239C47.4481 17.5799 47.3601 17.6879 47.5001 17.7319C48.7561 18.1319 51.4281 18.9319 52.7561 19.2439C48.8121 20.4999 46.4601 21.8799 44.0401 25.3119C43.1599 26.6529 42.4731 28.1112 42.0001 29.6439C41.7067 29.6149 41.4118 29.6823 41.1601 29.8359C40.9881 29.9519 41.0481 30.2359 41.1121 30.4319C40.6201 30.3359 40.3521 30.5639 40.5161 31.0639C40.6481 31.4639 41.0681 32.0199 41.0681 32.3039C41.0401 32.2639 40.9721 32.1519 40.9561 32.1319C40.5517 31.8223 40.048 31.6715 39.5401 31.7079C39.0441 31.7079 38.6401 32.2119 38.3121 32.4479C38.6281 31.4559 38.0561 30.8799 36.6321 32.2199C36.6636 32.1297 36.6732 32.0333 36.66 31.9387C36.6468 31.8441 36.6111 31.754 36.5561 31.6759C36.1561 31.2759 35.1961 32.1639 34.8081 32.3959C34.8081 32.2319 34.9321 31.8879 34.5721 31.7079C33.9921 31.4159 33.5801 32.0079 33.2241 32.5079C33.0881 31.9519 32.3841 31.8279 31.8521 32.0399C31.5401 32.1964 31.2969 32.4626 31.1692 32.7875C31.0415 33.1123 31.0382 33.4728 31.1601 33.7999C30.5641 33.4879 29.8561 33.2839 29.8281 33.9559C29.8268 34.1271 29.8469 34.2978 29.8881 34.4639C29.6081 34.2879 29.1761 34.0639 28.8801 34.2119C28.3201 34.4959 28.4801 35.0679 28.8001 35.6039C25.3001 35.6039 4.21208 36.0039 2.40008 36.1039C2.36669 36.1117 2.33693 36.1306 2.31562 36.1575C2.29432 36.1843 2.28272 36.2176 2.28272 36.2519C2.28272 36.2862 2.29432 36.3195 2.31562 36.3464C2.33693 36.3732 2.36669 36.3921 2.40008 36.3999C19.9041 36.1839 51.4641 35.9999 51.6281 36.0919C54.4281 38.0359 49.2681 43.1919 45.6921 43.9839C44.57 43.1857 43.4056 42.4486 42.2041 41.7759C42.1041 41.7239 42.0841 41.8919 42.0681 42.0039C42.0521 42.1159 42.0361 42.2359 42.0201 42.4039C40.9902 41.3294 39.7694 40.4559 38.4201 39.8279C35.7561 38.6999 34.0201 39.6079 32.5201 42.0239C31.876 43.1297 31.3401 44.2951 30.9201 45.5039C30.5578 46.57 30.2507 47.6542 30.0001 48.7519C29.3562 48.8821 28.6951 48.9038 28.0441 48.8159C26.5481 48.6279 24.3801 48.0599 23.9361 48.2079C23.0801 48.4959 22.3721 49.1999 21.4841 49.4959C20.0633 49.987 18.5574 50.1835 17.0582 50.0735C15.559 49.9634 14.0979 49.5492 12.7641 48.8559C12.3641 48.6639 9.82008 49.4639 9.24408 49.5839C7.82008 49.8719 4.19208 48.9759 2.11208 47.4239C2.09876 47.4174 2.08359 47.4157 2.06915 47.4191C2.05472 47.4225 2.04192 47.4308 2.03294 47.4426C2.02397 47.4545 2.01937 47.469 2.01995 47.4838C2.02052 47.4987 2.02622 47.5128 2.03608 47.5239C4.14808 49.1239 7.80408 50.0439 9.28008 49.7559C9.64008 49.6839 12.4001 48.8959 12.6721 49.0319C14.029 49.7465 15.5172 50.1771 17.046 50.2974C18.5748 50.4178 20.1121 50.2254 21.5641 49.7319C22.4921 49.4239 23.1641 48.7359 24.0201 48.4559C24.3601 48.3439 26.6041 48.9079 28.0201 49.0879C28.6594 49.1806 29.3097 49.1657 29.9441 49.0439C29.7681 49.8079 29.1841 52.4759 29.1441 52.9999C29.1393 53.0273 29.1404 53.0553 29.1473 53.0822C29.1542 53.1091 29.1667 53.1342 29.1841 53.1559C29.2521 53.2199 29.3801 53.2239 30.2281 53.2399C30.0121 54.5599 30.0321 54.4599 29.9361 54.5799C29.5106 55.0181 29.0548 55.4258 28.5721 55.7999C28.2721 56.0479 27.8881 56.4759 28.0601 56.8279C28.1641 57.0319 28.4241 57.0439 28.6521 57.0239C28.6521 57.1319 28.6521 57.3399 28.7561 57.3679C28.9321 57.4079 30.6601 57.3919 30.9561 57.3879L31.2641 57.7879C30.8201 58.5079 27.8521 63.4239 27.9241 64.2599C27.9481 64.5079 28.4321 64.6399 28.6961 64.7119C28.6441 64.8479 28.5921 64.9839 28.5441 65.0879C28.4961 65.1919 28.5041 65.1959 28.4841 65.2279C28.4641 65.2599 26.9561 65.6279 26.2721 66.1239C25.8241 66.4439 25.8721 66.7879 26.1121 66.9239C26.7681 67.3039 30.3761 67.2239 30.5761 67.0119C30.8401 66.7319 31.0441 65.5439 31.1121 65.1599C31.3933 65.2134 31.683 65.2038 31.9601 65.1319C33.2794 64.0607 34.5052 62.8791 35.6241 61.5999C36.0881 61.8839 36.5801 62.1559 37.1001 62.3999C36.7001 62.8519 32.4161 67.6279 32.3721 67.9759C32.3121 68.4119 33.5721 68.8959 33.9441 68.6679C34.0561 68.5959 34.3441 68.2679 38.8361 63.1119C39.6716 63.3948 40.5311 63.601 41.4041 63.7279C42.786 63.9266 44.1799 64.0309 45.5761 64.0399C47.1521 64.9039 49.0561 65.9399 50.2721 66.5959C45.5121 72.4839 45.7401 72.1759 45.7401 72.2879C45.7401 72.4999 46.0561 72.7159 46.2361 72.8279C46.4161 72.9399 46.7601 73.1079 46.9481 73.0079C47.2241 72.8559 51.4881 67.6199 51.7001 67.3599C53.9801 68.5599 55.9161 69.5759 56.4281 69.8279C56.5921 69.9119 56.7281 69.7479 56.8281 69.5919C56.9503 69.3907 57.0547 69.1793 57.1401 68.9599C57.1515 68.9261 57.151 68.8894 57.1386 68.8559C57.1262 68.8224 57.1028 68.7942 57.0721 68.7759L52.5881 66.2759L55.3361 62.9239L68.8001 70.3999C68.8333 70.4142 68.8699 70.4184 68.9055 70.412C68.9411 70.4056 68.974 70.3889 69.0001 70.3639C69.2482 70.0358 69.4526 69.6768 69.6081 69.2959C69.6561 69.1479 69.5761 69.0959 69.4761 69.0319C69.4561 69.0319 61.5001 64.5439 56.3681 61.6639L59.2121 58.1839C59.8996 58.2127 60.5852 58.0916 61.2213 57.8291C61.8574 57.5667 62.4288 57.1691 62.8961 56.6639C62.9361 57.1279 62.9641 57.4959 62.9841 57.7519C62.9876 57.7657 62.9956 57.7779 63.0068 57.7866C63.0181 57.7953 63.0319 57.8 63.0461 57.8C63.0603 57.8 63.0741 57.7953 63.0853 57.7866C63.0965 57.7779 63.1046 57.7657 63.1081 57.7519C63.0841 57.3519 63.0561 56.9519 63.0281 56.5279C64.0721 55.3279 64.4921 53.5479 64.5081 51.9519C64.9278 51.8735 65.342 51.7679 65.7481 51.6359C65.764 51.6359 65.7793 51.6296 65.7905 51.6183C65.8018 51.6071 65.8081 51.5918 65.8081 51.5759C65.8081 51.56 65.8018 51.5447 65.7905 51.5335C65.7793 51.5222 65.764 51.5159 65.7481 51.5159C65.359 51.5209 64.971 51.5584 64.5881 51.6279C66.2441 49.5999 69.1241 46.0279 69.6121 45.4039C70.8121 52.4119 70.8921 57.7279 71.0441 58.2039C71.0441 58.2879 71.1641 58.3519 71.1641 58.1519C71.1659 58.1413 71.1659 58.1305 71.1641 58.1199C70.9681 56.0719 70.8321 51.3799 69.8161 45.1479C73.3641 40.6799 73.2081 40.8039 73.1281 40.6759C72.9681 40.4319 72.3281 40.2199 71.8801 40.2039C71.8361 40.2039 71.9161 40.1199 70.8721 41.4039C70.4441 41.2919 69.8121 41.1639 69.0561 41.0279C68.7281 39.4279 68.3601 37.8559 67.9361 36.2279C76.7721 36.4359 76.2961 36.4719 76.3641 36.3599L76.8001 36.3999C76.8095 36.4023 76.8194 36.4026 76.829 36.4006C76.8385 36.3986 76.8475 36.3945 76.8552 36.3885C76.8629 36.3825 76.8691 36.3748 76.8734 36.3661C76.8777 36.3573 76.88 36.3477 76.88 36.3379C76.88 36.3282 76.8777 36.3185 76.8734 36.3098C76.8691 36.301 76.8629 36.2933 76.8552 36.2874C76.8475 36.2814 76.8385 36.2772 76.829 36.2753C76.8194 36.2733 76.8095 36.2735 76.8001 36.2759L76.3601 36.2359C76.3801 35.6559 76.2961 35.0719 75.7481 34.8719C76.0881 34.7039 76.6441 34.4719 76.4161 34.0439C76.1881 33.6159 75.6161 34.0719 75.3881 34.0439C75.3481 33.7799 75.7881 32.9279 74.9881 32.7279C74.6956 32.7259 74.4032 32.7392 74.1121 32.7679C74.2601 32.4999 74.5521 32.0239 74.5121 31.7319C74.4761 31.5439 74.3161 31.3959 73.8801 31.5039C73.7921 31.5279 73.4801 31.6519 73.2601 31.7079C73.3046 31.6427 73.3422 31.573 73.3721 31.4999C73.4481 31.1373 73.3822 30.7594 73.1881 30.4439C72.7241 29.7519 72.0481 30.2839 71.4841 30.5439C71.5893 30.3611 71.647 30.1548 71.6521 29.9439C71.6321 29.5679 71.2081 29.4799 70.8521 29.5839C70.558 29.6947 70.2732 29.8285 70.0001 29.9839C70.1167 29.8203 70.1674 29.6187 70.1423 29.4194C70.1171 29.22 70.0177 29.0374 69.8641 28.9079C69.6201 28.7479 69.0041 28.9079 68.7241 29.0159C69.1241 28.3039 68.9801 27.6919 68.6521 27.3639C68.3241 27.0359 67.5681 27.3239 67.2321 27.2919C67.3167 27.1749 67.3903 27.0504 67.4521 26.9199C67.528 26.5625 67.462 26.1896 67.2681 25.8799C67.2257 25.813 67.1664 25.7585 67.0962 25.7219C67.0259 25.6854 66.9472 25.6681 66.8681 25.6719C66.4681 25.6719 65.7841 26.1999 65.6681 26.0719C65.5521 25.9439 65.6681 25.4879 65.2681 25.2719C64.8681 25.0559 64.4001 25.1999 64.4001 25.8919C63.7161 24.2919 63.0521 22.9559 62.4561 21.8519C66.3601 22.9319 66.0801 22.8799 66.1521 22.7999ZM30.4001 66.7999C29.9521 66.9039 26.6641 66.9239 26.2281 66.6319C26.0761 66.2639 28.2761 65.5519 28.5561 65.4039C28.6721 65.3399 28.7841 64.9439 28.8441 64.7399C29.5398 64.9199 30.2467 65.0536 30.9601 65.1399C30.8681 65.4279 30.5841 66.5679 30.4001 66.7999ZM61.1281 12.9999C63.7081 9.89592 66.3601 7.32392 70.3001 6.63992C72.2601 6.29992 73.7761 6.34392 74.8121 8.04792C74.2801 8.33592 72.1241 9.24792 71.5641 9.46392L70.3961 9.68792C70.3618 9.69509 70.3309 9.71358 70.3084 9.74043C70.2859 9.76728 70.2731 9.80091 70.2721 9.83592V11.0159L64.1281 15.1999C62.9801 15.0679 63.0161 15.0559 62.9641 15.1039C62.9121 15.1519 62.9241 15.1039 63.0281 16.3039C62.7561 16.4639 61.4921 17.1959 60.5561 17.7519C59.5441 17.9519 59.7761 17.9279 59.5921 17.9079C59.6001 16.2119 60.0401 14.3079 61.1281 12.9999ZM47.6561 17.4999C47.6132 17.0541 47.5123 16.6157 47.3561 16.1959C47.3467 16.1774 47.3331 16.1612 47.3165 16.1488C47.2998 16.1363 47.2805 16.1278 47.2601 16.1239C47.1681 16.1239 47.0961 16.1839 47.0201 16.2559C46.7641 16.4999 46.2201 17.1159 46.0521 17.2839L40.4121 17.4919C40.3761 17.3119 40.2761 16.8439 40.2161 16.6679C40.2091 16.6459 40.1973 16.6258 40.1814 16.6091C40.1656 16.5924 40.1461 16.5795 40.1245 16.5714C40.1029 16.5633 40.0798 16.5602 40.0569 16.5624C40.0339 16.5646 40.0118 16.5719 39.9921 16.5839C39.8681 16.6479 39.1201 17.2439 39.0081 17.3319C37.9721 17.3639 32.9481 17.4959 31.9241 17.3719C32.8299 15.5773 34.1758 14.0415 35.8361 12.9079C39.4321 10.3999 48.4001 10.3999 52.4481 11.9999C55.2801 13.1199 57.9641 14.0239 59.5201 16.7239C59.477 17.1131 59.4556 17.5044 59.4561 17.8959C59.0761 17.8679 59.3401 17.9559 58.7001 17.5239C55.1001 15.0959 46.9241 12.5519 42.7881 13.7759C42.7724 13.7806 42.7592 13.7911 42.751 13.8052C42.7428 13.8193 42.7403 13.836 42.7441 13.8519C42.8081 14.0799 44.1081 13.0959 49.3521 14.2199C52.3641 14.8599 56.4041 16.2519 58.8441 17.8679C56.9841 17.8399 55.5881 18.3519 53.1361 19.1079C51.9161 18.8359 48.8401 17.8759 47.6561 17.4999ZM44.2801 25.4679C46.9601 21.6319 49.6001 20.3999 54.1081 19.0319C55.5041 18.6039 57.0401 18.0239 58.5081 18.0159C58.976 17.9957 59.4447 18.0198 59.9081 18.0879C59.9081 18.0879 59.9801 18.0879 59.9681 18.1119C60.0298 18.7331 59.9263 19.3596 59.6681 19.9279C59.3129 20.8021 58.8303 21.619 58.2361 22.3519C56.6801 24.3519 56.0241 25.1039 53.8641 26.4879C53.6361 26.4399 52.7841 26.1999 52.5681 26.1359C52.5485 26.1305 52.5279 26.1296 52.5079 26.1332C52.4878 26.1368 52.4689 26.1448 52.4524 26.1567C52.4359 26.1686 52.4222 26.184 52.4125 26.2019C52.4028 26.2198 52.3971 26.2396 52.3961 26.2599L52.2801 27.9999C50.8121 28.5959 47.9481 29.8719 46.7721 30.9199C46.3721 29.9799 46.3281 29.4679 46.0881 29.4679C45.9361 29.4679 45.9361 29.4919 45.4681 31.3959C44.8641 31.6799 42.3361 32.8559 41.6721 32.9519C41.4681 32.3439 42.4001 28.1359 44.2801 25.4679ZM59.3761 24.5959C58.9761 24.4039 58.3641 24.7239 58.0001 24.9439C58.1601 24.6599 58.4001 24.1879 58.0881 24.0399C57.7169 23.9461 57.3237 24.0006 56.9921 24.1919C57.4121 23.7079 57.8401 23.1599 58.3721 22.4639C58.818 21.8887 59.204 21.2695 59.5241 20.6159C59.6001 21.4999 59.7481 23.1319 59.9441 25.2399C59.7404 25.2457 59.5407 25.2976 59.3601 25.3919C59.4801 25.1999 59.7841 24.7999 59.3761 24.5959ZM29.1121 35.5999C28.8281 35.1999 28.5521 34.6679 28.9881 34.4479C29.1226 34.4113 29.2661 34.4285 29.3881 34.4959C29.6155 34.603 29.8291 34.7373 30.0241 34.8959C30.0466 34.9127 30.074 34.9219 30.1021 34.9221C30.1303 34.9223 30.1577 34.9135 30.1805 34.897C30.2033 34.8804 30.2202 34.8571 30.2288 34.8302C30.2373 34.8034 30.2371 34.7746 30.2281 34.7479C30.1221 34.4728 30.0758 34.1783 30.0921 33.8839C30.0921 33.8439 30.0921 33.8119 30.1441 33.7999C30.2905 33.7702 30.4425 33.7856 30.5801 33.8439C30.8197 33.9288 31.0491 34.0402 31.2641 34.1759C31.2848 34.1879 31.3082 34.1941 31.3321 34.1941C31.356 34.1941 31.3794 34.1879 31.4001 34.1759C31.6041 34.0439 31.1761 33.5599 31.4001 32.8919C31.4399 32.7571 31.5089 32.6327 31.6022 32.5276C31.6956 32.4225 31.8109 32.3393 31.9401 32.2839C32.3921 32.1039 32.9961 32.2039 33.0001 32.7279V32.8399C32.9996 32.8642 33.0065 32.8881 33.0199 32.9085C33.0333 32.9288 33.0526 32.9445 33.0751 32.9536C33.0977 32.9627 33.1225 32.9648 33.1462 32.9595C33.17 32.9542 33.1915 32.9418 33.2081 32.9239C33.5081 32.6239 33.9281 31.6759 34.4641 31.9399C34.6281 32.0239 34.5801 32.1639 34.5681 32.3399C34.5561 32.5159 34.6201 32.7079 34.7801 32.6879C35.0361 32.6559 36.5601 31.1919 36.4161 32.1239C36.3836 32.2978 36.3299 32.4671 36.2561 32.6279C36.2474 32.6523 36.2472 32.679 36.2554 32.7035C36.2637 32.7281 36.2799 32.7492 36.3016 32.7635C36.3232 32.7778 36.349 32.7844 36.3748 32.7823C36.4006 32.7802 36.425 32.7695 36.4441 32.7519C36.7761 32.3799 37.7921 31.4199 38.1201 31.7479C38.2201 31.8479 38.1441 32.2719 38.0961 32.4159C38.0666 32.4662 38.0317 32.5132 37.9921 32.5559C37.9201 32.6639 37.9561 32.7839 38.0881 32.7839C38.5321 32.7839 38.9961 31.9439 39.5361 31.9439C39.9879 31.9116 40.4367 32.039 40.8041 32.3039C40.8441 32.3439 41.0121 32.7439 41.1721 32.5799C41.4721 32.2839 41.0121 31.6919 40.7721 31.2319C40.6881 31.0639 40.5481 30.7399 40.7241 30.6639C40.8747 30.6222 41.0347 30.6307 41.1801 30.6879C41.2521 30.8359 41.3801 31.0879 41.5161 30.9679C41.6521 30.8479 41.6121 30.6719 41.3241 30.5359C41.2856 30.4439 41.2549 30.349 41.2321 30.2519C41.2321 30.1959 41.2001 30.0519 41.2321 30.0199C41.4342 29.8982 41.6686 29.841 41.9041 29.8559C41.7241 30.4239 41.0321 32.7839 41.4481 33.2039C41.5037 33.2508 41.5756 33.2738 41.6481 33.2679C42.2401 33.2399 45.1081 31.8999 45.6481 31.6679C45.7601 31.6159 45.6961 31.6399 46.1041 30.0679C46.4761 31.0439 46.5281 31.3199 46.7161 31.3239C46.9041 31.3279 46.8081 31.0159 48.9481 29.8719C50.5961 28.9919 52.4521 28.2399 52.4521 28.2399C52.477 28.2304 52.4989 28.2142 52.5151 28.193C52.5313 28.1718 52.5414 28.1465 52.5441 28.1199L52.6281 26.4719C53.8281 26.7959 53.8681 26.8079 53.9361 26.7639C54.9383 26.1456 55.8588 25.4038 56.6761 24.5559C57.0761 24.3319 57.6961 24.0679 58.0001 24.2199C58.2041 24.3239 57.7881 25.0199 57.6321 25.2119C57.6226 25.2287 57.6188 25.2481 57.6214 25.2672C57.6239 25.2863 57.6327 25.304 57.6463 25.3176C57.66 25.3313 57.6777 25.3401 57.6968 25.3426C57.7159 25.3452 57.7353 25.3414 57.7521 25.3319C57.9481 25.1879 58.8721 24.5799 59.2801 24.7839C59.6881 24.9879 58.8601 25.5239 59.1121 25.6919C59.1881 25.7399 59.2841 25.6719 59.3681 25.6159C59.5423 25.5116 59.741 25.455 59.9441 25.4519C60.1761 27.8919 60.4641 30.9439 60.7721 34.1959C60.0978 34.3637 59.4788 34.7042 58.9761 35.1839C58.3346 35.1258 57.6887 35.2275 57.0961 35.4799C56.8881 35.5679 56.9361 35.7639 57.1441 35.7599C57.0961 35.7599 57.2641 35.7599 57.5441 35.8319C57.6481 35.7999 35.5201 35.6199 29.1121 35.5999ZM59.6441 44.0399C59.6441 44.0399 59.7761 44.1079 59.9481 44.2079C59.2281 44.6879 57.6441 45.5479 57.4961 45.8399C57.4778 45.8819 57.4742 45.9287 57.4858 45.973C57.4975 46.0172 57.5236 46.0563 57.5601 46.0839C57.6601 46.1959 57.6361 46.1119 57.6201 46.2679V46.9599C57.5802 47.3184 57.5051 47.6721 57.3961 48.0159C57.2134 48.0599 57.0214 48.0445 56.8481 47.9719C55.8681 47.5439 55.3081 46.8279 55.4121 45.7559C55.9081 45.8279 56.1921 45.9119 56.2881 45.9199C56.3841 45.9279 56.6441 45.7519 56.3401 45.6359C56.1561 45.5679 56.1641 43.3719 56.4001 43.4759C56.4146 43.4788 56.4297 43.4766 56.4427 43.4696C56.4558 43.4626 56.466 43.4513 56.4717 43.4376C56.4773 43.4239 56.4781 43.4087 56.4738 43.3945C56.4695 43.3804 56.4604 43.3681 56.4481 43.3599C56.8481 42.7519 56.8481 42.7639 56.8481 42.6799C56.8425 42.6595 56.8325 42.6407 56.8186 42.6248C56.8048 42.6088 56.7875 42.5962 56.7681 42.5879C56.6165 42.5061 56.4886 42.3865 56.3968 42.2408C56.305 42.095 56.2524 41.928 56.2441 41.7559C56.2248 41.4967 56.2546 41.2361 56.3321 40.9879C56.4848 41.0593 56.6525 41.0929 56.821 41.086C56.9894 41.079 57.1537 41.0317 57.3001 40.9479C57.2161 41.1199 57.1241 41.3239 57.2441 41.4679C57.3372 41.5639 57.4594 41.6266 57.5918 41.6461C57.7241 41.6656 57.8592 41.6409 57.9761 41.5759C57.9834 41.573 57.9902 41.5687 57.9958 41.5632C58.0015 41.5578 58.0061 41.5512 58.0092 41.544C58.0124 41.5367 58.0141 41.5289 58.0142 41.521C58.0144 41.5131 58.013 41.5053 58.0101 41.4979C58.0072 41.4906 58.0029 41.4838 57.9974 41.4782C57.9919 41.4725 57.9854 41.4679 57.9781 41.4648C57.9709 41.4616 57.9631 41.4599 57.9552 41.4598C57.9473 41.4596 57.9394 41.461 57.9321 41.4639C57.7703 41.4701 57.6121 41.4159 57.4881 41.3119C57.5994 41.0348 57.7332 40.7672 57.8881 40.5119C58.3161 40.7239 58.2881 40.5119 58.2401 40.7279C58.1241 41.7279 59.2641 42.0479 59.9561 41.3839C60.0708 41.2633 60.1702 41.1289 60.2521 40.9839C60.3668 41.0073 60.4857 40.999 60.5961 40.9599C60.8161 41.0999 60.7881 41.0199 60.7761 41.1399C60.7682 41.1966 60.7751 41.2544 60.7961 41.3077C60.8171 41.361 60.8516 41.4079 60.8961 41.4439C60.9043 41.4902 60.9043 41.5376 60.8961 41.5839C60.3041 41.9159 60.3401 41.7199 60.2401 42.0199C60.0281 42.1319 60.0361 42.3599 59.9841 42.5639C59.9601 42.6559 59.7041 43.5639 59.6041 43.8919C59.596 43.9172 59.5954 43.9443 59.6025 43.9699C59.6096 43.9955 59.6241 44.0184 59.6441 44.0359V44.0399ZM57.7921 46.3039C58.013 46.4659 58.169 46.7013 58.2321 46.9679C58.2881 47.2479 58.2321 47.3159 58.2881 47.4119C58.3076 47.4419 58.3354 47.4655 58.3681 47.4799C58.1436 47.6725 57.8915 47.8303 57.6201 47.9479C57.7033 47.6314 57.7635 47.3092 57.8001 46.9839C57.8161 46.8399 57.7801 46.5399 57.7921 46.2999V46.3039ZM57.7921 45.9039C58.2401 45.5039 60.0601 44.3799 60.2841 44.0759C60.5681 44.2479 60.9961 44.5119 61.2641 44.7039C60.4641 45.3439 59.4281 46.1679 58.5321 47.0039C58.4761 46.4519 58.1801 46.2719 57.8081 45.9159L57.7921 45.9039ZM49.3081 53.7999C50.5006 53.7456 51.6892 53.624 52.8681 53.4359C53.3921 54.3602 54.0424 55.207 54.8001 55.9519C55.5905 56.6807 56.4892 57.2825 57.4641 57.7359C56.8761 58.7759 55.9081 60.1719 54.9201 60.8479L52.2241 59.3399C51.9481 58.4079 51.8481 57.5839 51.5481 56.6839C51.3726 56.0668 51.0259 55.5121 50.5481 55.0839C50.2001 54.7159 49.3481 53.8839 49.2921 53.8079C49.2361 53.7319 49.2881 53.8199 49.3081 53.7999ZM52.7761 53.1479C51.9201 53.2759 49.6161 53.5479 48.8241 53.4799C48.9823 51.9533 49.0424 50.4182 49.0041 48.8839C49.6041 49.3999 50.4161 50.0839 51.1961 50.7719C50.8615 50.8753 50.5714 51.088 50.3721 51.3759C50.3471 51.4264 50.334 51.482 50.3338 51.5383C50.3336 51.5946 50.3464 51.6503 50.3711 51.7009C50.3959 51.7515 50.4319 51.7958 50.4765 51.8303C50.521 51.8648 50.5729 51.8886 50.6281 51.8999C50.6851 51.9081 50.743 51.9081 50.8001 51.8999C50.7829 51.9569 50.7787 52.017 50.7877 52.0758C50.7967 52.1346 50.8187 52.1907 50.8521 52.2399C50.9109 52.332 50.9958 52.4045 51.0961 52.4479C51.1397 52.456 51.1845 52.456 51.2281 52.4479C51.2183 52.4873 51.2183 52.5285 51.2281 52.5679C51.3081 53.2239 51.9521 52.8759 52.5681 52.6559C52.8721 52.5519 52.8681 52.5679 53.0561 52.7199L52.7761 53.1479ZM56.0081 45.5479C55.5624 45.4343 55.104 45.3778 54.6441 45.3799C54.4601 45.3799 54.4801 45.4239 54.4881 45.3799C54.5561 44.8519 54.8241 43.3799 55.1841 42.9799L56.2641 43.3799C56.0001 43.7039 55.8841 44.9999 56.0001 45.5639L56.0081 45.5479ZM56.0081 43.1479C55.8801 43.0839 55.3121 42.8079 55.2081 42.7479C55.1041 42.6879 55.0601 42.7479 54.9761 42.8559L54.8441 42.8319L55.9481 41.6079C55.9404 41.8118 55.9789 42.0149 56.0606 42.2019C56.1423 42.3889 56.2652 42.555 56.4201 42.6879L56.0081 43.1479ZM54.8441 43.0119C54.5931 43.4617 54.4175 43.9494 54.3241 44.4559C54.2317 44.8509 54.1675 45.2519 54.1321 45.6559C54.131 45.6765 54.1341 45.6972 54.1413 45.7165C54.1484 45.7359 54.1594 45.7536 54.1737 45.7686C54.1879 45.7836 54.205 45.7955 54.224 45.8036C54.243 45.8118 54.2634 45.8159 54.2841 45.8159C54.5299 45.687 54.8141 45.6514 55.0841 45.7159C55.0365 46.1237 55.0944 46.5369 55.2521 46.9159C53.9983 48.1941 52.6778 49.4051 51.2961 50.5439L48.9801 48.6679C48.9801 48.1959 48.9801 47.7639 48.9481 47.4159C48.9121 46.5119 48.8881 46.5039 48.7761 46.3759C48.4667 46.0641 48.1337 45.7765 47.7801 45.5159C49.7681 44.3279 52.5001 42.6919 54.8641 43.0199L54.8441 43.0119ZM52.8241 52.3999C52.5561 52.3999 51.9161 52.7079 51.5761 52.6999C51.5041 52.6999 51.4841 52.6119 51.4801 52.5399C51.7321 52.2359 52.4121 52.1399 52.4121 51.8959C52.4121 51.8959 52.3441 51.6999 52.1921 51.7679C51.868 51.9295 51.5308 52.0633 51.1841 52.1679C51.1538 52.1432 51.1281 52.1134 51.1081 52.0799C51.0761 52.0199 51.1081 52.0079 51.1081 51.9919C51.4075 51.7883 51.7349 51.6293 52.0801 51.5199C52.1129 51.5016 52.1381 51.4719 52.1508 51.4365C52.1635 51.4011 52.163 51.3623 52.1494 51.3272C52.1358 51.2921 52.1099 51.2631 52.0766 51.2456C52.0432 51.2281 52.0047 51.2232 51.9681 51.2319C51.5281 51.3799 51.5121 51.4359 51.1681 51.5359C51.0601 51.5639 50.6801 51.6759 50.6321 51.5759C50.5841 51.4759 50.8481 51.2759 50.9601 51.2119C51.4052 50.9593 51.9015 50.8102 52.4121 50.7759C52.8601 50.7759 52.9041 50.8039 53.8401 51.4679L53.1321 52.5879C53.0505 52.4959 52.9432 52.4304 52.8241 52.3999ZM52.9881 50.6279C52.565 50.4944 52.1111 50.4944 51.6881 50.6279C52.9852 49.5391 54.2155 48.373 55.3721 47.1359C55.6853 47.6479 56.1593 48.0418 56.7201 48.2559C56.8914 48.3299 57.078 48.3614 57.2641 48.3479C56.6681 49.6519 54.9281 50.3799 54.5241 51.0239L54.3601 50.9239C54.3281 50.9043 54.2897 50.8979 54.2531 50.9061C54.2165 50.9143 54.1846 50.9365 54.1641 50.9679L53.9321 51.3359C53.5761 51.0479 53.1361 50.7119 52.9881 50.6319V50.6279ZM60.1881 39.3319C60.1881 39.4679 60.0801 39.5559 60.0841 39.7319C60.0833 39.7982 60.096 39.8639 60.1214 39.9252C60.1469 39.9864 60.1845 40.0417 60.2321 40.0879C60.2907 40.1339 60.3537 40.1741 60.4201 40.2079C60.4506 40.2185 60.478 40.2364 60.5001 40.2599C60.4455 40.3878 60.4079 40.5223 60.3881 40.6599H60.3561C60.4241 40.4479 60.3841 40.2599 60.2481 40.1959C59.7215 39.9548 59.1403 39.8582 58.5641 39.9159C58.4601 39.9159 58.3321 40.2479 58.2961 40.3599C58.1717 40.2837 58.037 40.2258 57.8961 40.1879C57.9681 39.9959 57.9401 39.8359 57.8201 39.7559C57.5242 39.5815 57.1939 39.4737 56.8521 39.4399L56.9361 39.2239C57.0365 39.1807 57.1215 39.1082 57.1801 39.0159C57.2721 38.8919 57.4321 38.5799 57.4841 38.6159C57.6041 38.6519 57.7401 38.8799 58.0481 38.6399C58.1539 38.5398 58.2515 38.4315 58.3401 38.3159C58.4611 38.394 58.5866 38.4648 58.7161 38.5279C58.9681 38.5839 59.1481 38.3479 59.2521 38.3119C59.3041 38.3759 59.3921 38.4959 59.4161 38.5199C59.4819 38.5684 59.5579 38.6011 59.6383 38.6157C59.7188 38.6302 59.8015 38.6262 59.8801 38.6039C59.8001 38.9959 60.0001 39.0599 60.1841 39.3359L60.1881 39.3319ZM60.8561 36.5799C60.0788 36.2493 59.2762 35.9818 58.4561 35.7799C58.2921 35.7439 57.1601 35.6159 57.1201 35.6079L57.1681 35.5799C57.8342 35.3198 58.5633 35.2668 59.2601 35.4279C60.7201 35.8279 63.1401 36.9559 63.9801 38.2279C64.2769 38.6296 64.5153 39.0713 64.6881 39.5399C64.2995 39.2141 63.9359 38.8598 63.6001 38.4799C62.8339 37.6544 61.8958 37.0071 60.8521 36.5839L60.8561 36.5799ZM63.9601 37.0759C63.9601 37.2559 63.9161 37.4319 63.8961 37.6079C62.8841 36.4919 60.4681 35.4199 59.1761 35.1759C60.5881 34.0559 62.1641 34.1399 63.0921 34.8919C63.3982 35.1628 63.636 35.5022 63.7861 35.8824C63.9363 36.2626 63.9945 36.6729 63.9561 37.0799L63.9601 37.0759ZM52.0481 36.0399C58.0121 36.0399 57.4761 36.0399 57.4321 36.0799H57.2401C57.0128 36.1291 56.8086 36.253 56.6601 36.4319C56.4481 36.7599 56.5081 36.7479 56.5281 37.0199C56.4519 37.09 56.3848 37.1693 56.3281 37.2559C56.2593 37.3595 56.2207 37.4802 56.2164 37.6045C56.2122 37.7288 56.2425 37.8518 56.3041 37.9599C56.2681 38.0479 56.1921 38.1359 56.1601 38.2319C56.1412 38.2794 56.1361 38.3312 56.1453 38.3814C56.1545 38.4316 56.1776 38.4782 56.2121 38.5159C56.2398 38.5382 56.2692 38.5583 56.3001 38.5759C56.3143 38.5819 56.3267 38.5916 56.3361 38.6039C56.3161 38.6839 56.2641 38.7439 56.2481 38.8239C56.2422 38.8811 56.2513 38.9388 56.2745 38.9913C56.2976 39.0439 56.334 39.0896 56.3801 39.1239C56.4676 39.189 56.5614 39.2453 56.6601 39.2919L56.6121 39.4199H56.3201C56.2401 39.4199 56.1241 39.6199 56.0881 39.6919C55.9773 39.8577 55.9182 40.0526 55.9182 40.2519C55.9182 40.4513 55.9773 40.6462 56.0881 40.8119C56.0255 40.9896 55.9813 41.1732 55.9561 41.3599L54.6081 42.8319C53.4633 42.7864 52.3219 42.9855 51.2601 43.4159C49.9634 43.9411 48.718 44.5851 47.5401 45.3399C47.0561 44.9719 46.4961 44.5639 46.0081 44.2239C49.5441 43.2639 54.5961 38.3159 52.0481 36.0399ZM42.2001 41.9159C43.5121 42.6159 47.8681 45.7639 48.5601 46.5439C48.6361 46.6359 48.6441 46.5439 48.6761 47.4319C48.7241 48.8159 48.7361 52.0119 48.5281 53.3679C48.4121 53.2759 42.3001 48.4719 41.9481 48.2159C41.9241 47.5999 42.0801 42.5719 42.2001 41.9159ZM28.3601 56.7159C28.3321 56.7159 28.3121 56.7159 28.3001 56.6919C28.2881 56.6679 28.3001 56.5319 28.3561 56.4479C28.5801 56.0479 29.0921 55.7799 29.8041 55.0679C29.9715 54.9174 30.1075 54.7352 30.2041 54.5319C30.2561 54.3319 30.3441 53.4839 30.3681 53.2439H32.6921C32.5603 53.9439 32.3934 54.6367 32.1921 55.3199C31.6241 55.5999 28.9921 56.8559 28.3601 56.7159ZM31.5601 57.2279C31.2161 57.2279 29.0841 57.2759 28.7601 57.2279C28.7459 57.1499 28.7459 57.0699 28.7601 56.9919C29.556 56.8092 30.3298 56.541 31.0681 56.1919H32.2681C32.0281 56.5119 31.8001 56.8639 31.5721 57.2279H31.5601ZM34.5361 53.0479C33.7369 53.9772 33.007 54.9639 32.3521 55.9999L31.3721 56.0199C31.9041 55.7719 32.3001 55.5639 32.3521 55.5399C32.3953 55.5121 32.4289 55.4716 32.4481 55.4239C32.6354 54.7002 32.7771 53.9654 32.8721 53.2239C33.3761 53.2239 33.5561 53.2239 33.6041 53.0959C33.7321 52.8159 36.0681 48.4399 36.4441 47.7479C36.5721 47.7479 36.3201 47.5319 38.2321 50.0199C40.1361 49.5159 41.8601 49.4879 44.4681 50.5279L45.3561 51.2319C43.6761 50.4759 41.8561 49.8679 39.9961 49.9719C39.2114 50.0131 38.4336 50.1392 37.6761 50.3479C36.4681 50.9959 35.4921 52.0319 34.5481 53.0479H34.5361ZM35.8201 61.3559C37.2521 59.7879 38.4881 58.3119 39.5081 57.2799H41.6361C40.1241 58.9799 38.6121 60.6879 37.2921 62.1799C36.791 61.9317 36.3036 61.6566 35.8321 61.3559H35.8201ZM33.7801 68.3999C33.3769 68.4125 32.9844 68.2693 32.6841 67.9999C33.1241 67.2919 37.8561 61.9679 42.0241 57.2559H43.6241C35.1041 66.9439 33.8881 68.3319 33.7801 68.3999ZM39.0441 62.8679C40.4881 61.2079 42.1681 59.2879 43.9361 57.2679C44.5041 57.2679 44.9001 57.2919 45.0561 57.3159C46.3121 59.6359 49.0281 60.5159 51.6361 60.8599L53.7761 62.0599C52.5817 62.7222 51.2874 63.1856 49.9441 63.4319C46.4881 64.1079 41.7801 63.7799 39.0441 62.8679ZM53.8441 62.1719L51.1681 65.4799L48.3001 63.8799C50.2459 63.698 52.1333 63.1166 53.8441 62.1719ZM46.0001 64.0319C46.6921 64.0319 47.3361 63.9839 47.9401 63.9239L51.0001 65.6679L50.4401 66.3599L46.0001 64.0319ZM56.8001 68.9679C56.7236 69.1612 56.6228 69.3441 56.5001 69.5119C56.1561 69.3399 54.1401 68.2879 51.8961 67.1119L52.4241 66.4719L56.8001 68.9679ZM46.8001 72.7199C46.5224 72.6477 46.2703 72.4995 46.0721 72.2919C46.0961 72.2559 49.6721 67.8199 54.1681 62.2599L55.0961 62.7759C49.3041 69.7799 47.0721 72.4919 46.8001 72.7199ZM69.2881 69.2679C69.1619 69.5461 69.0134 69.8137 68.8441 70.0679C67.6441 69.4839 46.0441 57.2679 45.1641 57.0639C44.7241 56.9519 40.0481 57.0639 39.5361 57.0639L40.4641 56.1119C40.9481 56.1119 45.4761 56.1119 45.8441 56.2079C47.0441 56.5599 69.1401 69.2679 69.2841 69.2679H69.2881ZM56.1321 61.5239L55.2001 61.0119C56.1921 60.2799 57.1321 58.9199 57.7321 57.8519C58.102 57.9948 58.4872 58.0942 58.8801 58.1479C58.9361 58.1519 59.0521 57.9999 56.1281 61.5239H56.1321ZM63.6001 55.1599C63.2093 56.0052 62.5775 56.7163 61.7841 57.2039C59.3841 58.6679 57.1161 57.6039 54.9841 55.7239C54.2319 54.9811 53.587 54.137 53.0681 53.2159L54.3121 51.2359C58.0361 53.4399 57.6521 53.1479 58.6001 53.6959C58.6761 53.7359 58.7601 53.7799 58.9601 53.8959L59.3801 54.1479C59.6681 54.3159 59.5921 54.3559 59.6801 54.3599C59.8361 54.3599 59.6801 54.0559 59.4361 53.8479C59.1249 53.6234 58.7826 53.4455 58.4201 53.3199C59.1581 52.0601 59.9674 50.8435 60.8441 49.6759C60.8542 49.6632 60.8588 49.647 60.8569 49.6308C60.855 49.6147 60.8468 49.6 60.8341 49.5899C60.8214 49.5798 60.8051 49.5752 60.789 49.5771C60.7729 49.579 60.7582 49.5872 60.7481 49.5999C59.8361 50.7566 58.992 51.9653 58.2201 53.2199C57.7281 52.9759 55.1881 51.4319 54.7161 51.1439C55.0881 50.5399 56.9121 49.7559 57.4801 48.3039C58.3961 48.0799 59.3361 46.9759 59.8801 46.2119L61.4001 44.8759C62.1519 45.399 62.7544 46.109 63.1481 46.9359C63.8342 48.445 64.2045 50.0785 64.2361 51.7359C64.3036 52.9119 64.0854 54.0867 63.6001 55.1599ZM71.8801 40.3239C72.1921 40.3239 72.8761 40.5359 72.9881 40.7519C73.0161 40.7959 72.3521 41.7559 64.4961 51.3559C64.4674 50.8062 64.3979 50.2593 64.2881 49.7199C68.4801 44.5359 71.7641 40.4679 71.8841 40.3239H71.8801ZM70.6801 41.5879C69.3561 43.1879 66.9921 46.0599 64.2281 49.4239C64.0196 48.5424 63.7249 47.6836 63.3481 46.8599C62.9361 46.0216 62.3147 45.3038 61.5441 44.7759C61.5605 44.7517 61.5672 44.7221 61.5627 44.6932C61.5583 44.6643 61.543 44.6381 61.5201 44.6199C61.2001 44.4079 60.6321 44.1199 60.3201 43.9479C60.3116 43.9433 60.3021 43.9408 60.2925 43.9406C60.2828 43.9405 60.2733 43.9427 60.2646 43.947C60.256 43.9513 60.2485 43.9576 60.2428 43.9655C60.2372 43.9733 60.2335 43.9824 60.2321 43.9919L59.9121 43.8159L60.1721 43.0159C60.2667 43.082 60.3765 43.1229 60.4913 43.1348C60.606 43.1467 60.722 43.1292 60.8281 43.0839C60.8765 43.049 60.9196 43.0072 60.9561 42.9599C61.0687 43.0291 61.1966 43.0694 61.3285 43.077C61.4605 43.0847 61.5922 43.0596 61.7121 43.0039C61.8806 42.897 62.0184 42.7481 62.1121 42.5719C62.2001 42.4439 62.2161 42.4199 62.4481 42.4239C62.6725 42.459 62.9018 42.406 63.0881 42.2759C63.2953 42.0614 63.4102 41.7742 63.4081 41.4759C63.6131 41.3919 63.787 41.2463 63.9059 41.0594C64.0248 40.8724 64.0829 40.6532 64.0721 40.4319C65.5601 40.6519 69.2001 41.1999 70.6801 41.5999V41.5879ZM64.6801 25.5399C64.7641 25.3439 64.9521 25.3999 65.1441 25.4959C65.3361 25.5919 65.3401 25.7679 65.3721 25.9679C65.5481 26.9959 66.7161 25.5119 67.0521 26.0199C67.2066 26.2768 67.2594 26.5821 67.2001 26.8759C67.1222 27.0148 67.0353 27.1484 66.9401 27.2759C66.9228 27.2967 66.9134 27.3229 66.9134 27.3499C66.9134 27.3769 66.9228 27.4031 66.9401 27.4239C67.2521 27.7359 68.1161 27.2079 68.4441 27.5399C68.576 27.698 68.6594 27.8909 68.6842 28.0952C68.709 28.2996 68.6743 28.5068 68.5841 28.6919C68.4681 28.9839 68.2081 29.2399 68.2721 29.3759C68.3361 29.5119 68.4121 29.4759 68.5041 29.3759C68.5961 29.2759 69.5281 29.0039 69.7041 29.1119C69.7537 29.1522 69.794 29.2027 69.8223 29.26C69.8506 29.3173 69.8662 29.38 69.8681 29.4439C69.9041 29.7959 69.7161 29.8759 69.6081 30.0319C69.5001 30.1879 69.5641 30.3079 69.7161 30.3079C70.2201 30.3079 70.8321 29.5999 71.3161 29.8479C71.4401 29.9119 71.3161 30.2919 71.2121 30.4439C71.1081 30.5959 71.0201 30.6519 71.0601 30.7679C71.1401 30.9999 71.5881 30.7679 71.8041 30.6519C72.2481 30.4159 72.6601 30.1679 72.9401 30.5879C73.0916 30.8414 73.1443 31.142 73.0881 31.4319C73.0681 31.5119 72.8761 31.7359 72.8601 31.8319C72.8281 32.0039 73.0321 32.0279 73.2001 31.9959C73.5481 31.9319 74.2081 31.5959 74.2201 31.8039C74.2201 32.0959 73.7481 32.7599 73.7481 32.9239C73.752 32.9614 73.7698 32.9961 73.7979 33.0212C73.826 33.0463 73.8624 33.0601 73.9001 33.0599C73.9401 33.0599 74.8561 32.9839 74.9121 32.9999C75.5401 33.1559 74.8881 33.9519 75.1841 34.2479C75.3761 34.4439 75.7201 34.2479 76.0121 34.1559C76.0441 34.1559 76.1441 34.1239 76.1601 34.1559C76.2681 34.3759 75.7161 34.5559 75.4921 34.6799C75.2681 34.8039 75.2761 35.0359 75.4201 35.0799C75.4891 35.0898 75.5591 35.0898 75.6281 35.0799C76.0281 35.2119 76.0841 35.6679 76.0721 36.0879C75.5081 36.0599 67.8281 35.7999 67.8001 35.7999C66.957 32.6045 65.8999 29.4695 64.6361 26.4159C64.6011 26.1235 64.616 25.8273 64.6801 25.5399ZM68.2521 38.7399C67.4245 38.8333 66.6031 38.9749 65.7921 39.1639C65.5601 39.2239 65.3561 39.2919 65.1881 39.3439C65.1722 39.3471 65.1582 39.3565 65.1492 39.37C65.1402 39.3835 65.1369 39.4 65.1401 39.4159C65.1433 39.4318 65.1526 39.4458 65.1661 39.4548C65.1796 39.4638 65.1962 39.4671 65.2121 39.4639L65.5881 39.4359C66.2556 39.3738 66.9175 39.2615 67.5681 39.0999C67.8093 39.032 68.0469 38.9519 68.2801 38.8599C68.4454 39.5399 68.6028 40.2372 68.7521 40.9519C68.0921 40.8399 64.8561 40.3559 64.0121 40.2399C64.007 40.1677 63.9789 40.0991 63.9321 40.0439C64.0262 39.8596 64.0987 39.6649 64.1481 39.4639C64.2934 39.614 64.4543 39.7481 64.6281 39.8639C64.8081 39.9399 65.0761 39.7959 64.9601 39.3799C64.7553 38.8743 64.4864 38.3971 64.1601 37.9599C64.1801 37.6839 64.2281 37.4119 64.2601 37.1239C64.3182 36.5487 64.1952 35.9697 63.9084 35.4678C63.6215 34.9658 63.1851 34.5659 62.6601 34.3239C62.1779 34.1429 61.6604 34.0758 61.1481 34.1279C61.0521 33.1639 60.9561 32.1719 60.8561 31.2039C61.0191 31.2058 61.182 31.1978 61.3441 31.1799C62.1521 31.0798 62.9481 30.8989 63.7201 30.6399C63.736 30.6367 63.75 30.6274 63.759 30.6139C63.768 30.6004 63.7713 30.5838 63.7681 30.5679C63.7649 30.552 63.7555 30.538 63.742 30.529C63.7285 30.52 63.712 30.5167 63.6961 30.5199C62.7296 30.5987 61.7739 30.777 60.8441 31.0519C60.1801 24.4439 59.9201 22.5639 59.7881 20.0279C59.9417 19.6292 60.0439 19.2125 60.0921 18.7879C60.7048 19.6876 61.24 20.6377 61.6921 21.6279C61.7201 21.6839 61.7481 21.6759 62.0481 21.7599C64.8401 26.7999 66.8841 32.9959 68.2521 38.7479V38.7399ZM61.8521 21.4799C61.3679 20.4492 60.7838 19.4685 60.1081 18.5519C60.1184 18.3942 60.1103 18.2358 60.0841 18.0799C60.078 18.0606 60.0671 18.0431 60.0524 18.0291C60.0377 18.0151 60.0197 18.0051 60.0001 17.9999C61.1721 17.7759 64.2241 17.2319 65.4241 17.3319C70.7121 17.7639 74.3321 19.1679 77.1321 23.6199C78.0241 25.0319 77.7081 27.5159 77.0401 28.7719C76.9768 28.8962 76.896 29.0107 76.8001 29.1119C76.3601 28.7119 74.1241 26.3119 73.7081 25.8879L73.5361 24.4359C73.5326 24.4134 73.5243 24.392 73.5116 24.3731C73.499 24.3542 73.4824 24.3383 73.4629 24.3264C73.4435 24.3146 73.4217 24.3072 73.3991 24.3047C73.3765 24.3022 73.3536 24.3047 73.3321 24.3119L72.1321 24.7759L67.7881 22.9959C67.2321 21.4999 67.2721 21.5359 67.1721 21.5159C67.0721 21.4959 67.1201 21.4839 66.0361 22.5879L61.8521 21.4799Z" fill="black"/>
</svg>
